<?xml version="1.0" encoding="UTF-8" standalone="no"?>
<!DOCTYPE svg PUBLIC "-//W3C//DTD SVG 1.1//EN"
 "http://www.w3.org/Graphics/SVG/1.1/DTD/svg11.dtd">
<!-- Generated by graphviz version 7.1.0 (20230121.1956)
 -->
<!-- Pages: 1 -->
<svg width="1905pt" height="1562pt"
 viewBox="0.00 0.00 1904.50 1562.00" xmlns="http://www.w3.org/2000/svg" xmlns:xlink="http://www.w3.org/1999/xlink">
<g id="graph0" class="graph" transform="scale(1 1) rotate(0) translate(4 1558)">
<g id="a_graph0"><a xlink:title=" ">
<polygon fill="white" stroke="none" points="-4,4 -4,-1558 1900.5,-1558 1900.5,4 -4,4"/>
</a>
</g>
<!-- 1 -->
<g id="node1" class="node">
<title>1</title>
<g id="a_node1"><a xlink:title="C:\Users\darel\OneDrive\Desktop\CAETE\src\caete.py">
<polygon fill="#ff0000" stroke="#ff0000" points="1005.5,-1370 888.5,-1370 888.5,-1318 1005.5,-1318 1005.5,-1370"/>
<text text-anchor="middle" x="947" y="-1358" font-family="Arial" font-size="10.00" fill="#ffffff">caete:1016:run_gridcell</text>
<text text-anchor="middle" x="947" y="-1347" font-family="Arial" font-size="10.00" fill="#ffffff">100.00%</text>
<text text-anchor="middle" x="947" y="-1336" font-family="Arial" font-size="10.00" fill="#ffffff">(67.41%)</text>
<text text-anchor="middle" x="947" y="-1325" font-family="Arial" font-size="10.00" fill="#ffffff">1×</text>
</a>
</g>
</g>
<!-- 8 -->
<g id="node2" class="node">
<title>8</title>
<g id="a_node2"><a xlink:title="C:\Users\darel\OneDrive\Desktop\CAETE\src\caete.py">
<polygon fill="#0d0f73" stroke="#0d0f73" points="116,-1278 0,-1278 0,-1226 116,-1226 116,-1278"/>
<text text-anchor="middle" x="58" y="-1266" font-family="Arial" font-size="10.00" fill="#ffffff">caete:1603:&lt;listcomp&gt;</text>
<text text-anchor="middle" x="58" y="-1255" font-family="Arial" font-size="10.00" fill="#ffffff">0.58%</text>
<text text-anchor="middle" x="58" y="-1244" font-family="Arial" font-size="10.00" fill="#ffffff">(0.58%)</text>
<text text-anchor="middle" x="58" y="-1233" font-family="Arial" font-size="10.00" fill="#ffffff">18250×</text>
</a>
</g>
</g>
<!-- 1&#45;&gt;8 -->
<g id="edge1" class="edge">
<title>1&#45;&gt;8</title>
<path fill="none" stroke="#0d0f73" stroke-width="0.5" d="M888.19,-1341.63C742.63,-1337.99 368.44,-1327.12 245,-1309 189.7,-1300.88 175.13,-1295.87 120.34,-1278.09"/>
<polygon fill="#0d0f73" stroke="#0d0f73" stroke-width="0.5" points="120.76,-1276.93 117.05,-1277.02 120,-1279.26 120.76,-1276.93"/>
<text text-anchor="middle" x="261.5" y="-1301" font-family="Arial" font-size="10.00" fill="#0d0f73">0.58%</text>
<text text-anchor="middle" x="261.5" y="-1290" font-family="Arial" font-size="10.00" fill="#0d0f73">18250×</text>
</g>
<!-- 9 -->
<g id="node3" class="node">
<title>9</title>
<g id="a_node3"><a xlink:title="C:\Users\darel\OneDrive\Desktop\CAETE\src\caete.py">
<polygon fill="#0d1174" stroke="#0d1174" points="241,-1278 125,-1278 125,-1226 241,-1226 241,-1278"/>
<text text-anchor="middle" x="183" y="-1266" font-family="Arial" font-size="10.00" fill="#ffffff">caete:1587:&lt;listcomp&gt;</text>
<text text-anchor="middle" x="183" y="-1255" font-family="Arial" font-size="10.00" fill="#ffffff">0.99%</text>
<text text-anchor="middle" x="183" y="-1244" font-family="Arial" font-size="10.00" fill="#ffffff">(0.99%)</text>
<text text-anchor="middle" x="183" y="-1233" font-family="Arial" font-size="10.00" fill="#ffffff">18250×</text>
</a>
</g>
</g>
<!-- 1&#45;&gt;9 -->
<g id="edge2" class="edge">
<title>1&#45;&gt;9</title>
<path fill="none" stroke="#0d1174" stroke-width="0.5" d="M888.28,-1342.29C786.55,-1340.42 571.14,-1333.62 391,-1309 325.71,-1300.07 309.07,-1297.11 246,-1278 245.7,-1277.91 245.41,-1277.82 245.11,-1277.73"/>
<polygon fill="#0d1174" stroke="#0d1174" stroke-width="0.5" points="245.66,-1276.62 241.95,-1276.73 244.92,-1278.95 245.66,-1276.62"/>
<text text-anchor="middle" x="407.5" y="-1301" font-family="Arial" font-size="10.00" fill="#0d1174">0.99%</text>
<text text-anchor="middle" x="407.5" y="-1290" font-family="Arial" font-size="10.00" fill="#0d1174">18250×</text>
</g>
<!-- 10 -->
<g id="node4" class="node">
<title>10</title>
<g id="a_node4"><a xlink:title="C:\Users\darel\OneDrive\Desktop\CAETE\src\caete.py">
<polygon fill="#0d0f73" stroke="#0d0f73" points="395.5,-1278 250.5,-1278 250.5,-1226 395.5,-1226 395.5,-1278"/>
<text text-anchor="middle" x="323" y="-1266" font-family="Arial" font-size="10.00" fill="#ffffff">caete:214:catch_out_carbon3</text>
<text text-anchor="middle" x="323" y="-1255" font-family="Arial" font-size="10.00" fill="#ffffff">0.58%</text>
<text text-anchor="middle" x="323" y="-1244" font-family="Arial" font-size="10.00" fill="#ffffff">(0.58%)</text>
<text text-anchor="middle" x="323" y="-1233" font-family="Arial" font-size="10.00" fill="#ffffff">18250×</text>
</a>
</g>
</g>
<!-- 1&#45;&gt;10 -->
<g id="edge3" class="edge">
<title>1&#45;&gt;10</title>
<path fill="none" stroke="#0d0f73" stroke-width="0.5" d="M888.02,-1341.75C804.61,-1339.21 647.68,-1331.59 516,-1309 477.02,-1302.31 434.71,-1290.56 399.67,-1279.55"/>
<polygon fill="#0d0f73" stroke="#0d0f73" stroke-width="0.5" points="400.3,-1278.46 396.59,-1278.58 399.56,-1280.8 400.3,-1278.46"/>
<text text-anchor="middle" x="532.5" y="-1301" font-family="Arial" font-size="10.00" fill="#0d0f73">0.58%</text>
<text text-anchor="middle" x="532.5" y="-1290" font-family="Arial" font-size="10.00" fill="#0d0f73">18250×</text>
</g>
<!-- 105 -->
<g id="node5" class="node">
<title>105</title>
<g id="a_node5"><a xlink:title="C:\Users\darel\opt\Python&#45;3.11.13fromnumeric:2589:all\n2.61%\n(0.44%)\n18250×ib\site&#45;packages\numpy\_core\fromnumeric.py">
<polygon fill="#0d1876" stroke="#0d1876" points="511.5,-1278 404.5,-1278 404.5,-1226 511.5,-1226 511.5,-1278"/>
<text text-anchor="middle" x="458" y="-1266" font-family="Arial" font-size="10.00" fill="#ffffff">fromnumeric:2589:all</text>
<text text-anchor="middle" x="458" y="-1255" font-family="Arial" font-size="10.00" fill="#ffffff">2.61%</text>
<text text-anchor="middle" x="458" y="-1244" font-family="Arial" font-size="10.00" fill="#ffffff">(0.44%)</text>
<text text-anchor="middle" x="458" y="-1233" font-family="Arial" font-size="10.00" fill="#ffffff">18250×</text>
</a>
</g>
</g>
<!-- 1&#45;&gt;105 -->
<g id="edge4" class="edge">
<title>1&#45;&gt;105</title>
<path fill="none" stroke="#0d1876" stroke-width="0.5" d="M888.07,-1339.12C804.06,-1332.48 645.68,-1315.79 516,-1278 515.91,-1277.98 515.83,-1277.95 515.74,-1277.92"/>
<polygon fill="#0d1876" stroke="#0d1876" stroke-width="0.5" points="516.3,-1276.81 512.59,-1276.96 515.58,-1279.16 516.3,-1276.81"/>
<text text-anchor="middle" x="661.5" y="-1301" font-family="Arial" font-size="10.00" fill="#0d1876">2.61%</text>
<text text-anchor="middle" x="661.5" y="-1290" font-family="Arial" font-size="10.00" fill="#0d1876">18250×</text>
</g>
<!-- 112 -->
<g id="node6" class="node">
<title>112</title>
<g id="a_node6"><a xlink:title="~">
<polygon fill="#0d3b80" stroke="#0d3b80" points="739,-1278 521,-1278 521,-1226 739,-1226 739,-1278"/>
<text text-anchor="middle" x="630" y="-1266" font-family="Arial" font-size="10.00" fill="#ffffff">~:0:&lt;method &#39;sum&#39; of &#39;numpy.ndarray&#39; objects&gt;</text>
<text text-anchor="middle" x="630" y="-1255" font-family="Arial" font-size="10.00" fill="#ffffff">10.01%</text>
<text text-anchor="middle" x="630" y="-1244" font-family="Arial" font-size="10.00" fill="#ffffff">(1.34%)</text>
<text text-anchor="middle" x="630" y="-1233" font-family="Arial" font-size="10.00" fill="#ffffff">182500×</text>
</a>
</g>
</g>
<!-- 1&#45;&gt;112 -->
<g id="edge5" class="edge">
<title>1&#45;&gt;112</title>
<path fill="none" stroke="#0d3b80" stroke-width="0.5" d="M888.13,-1328.72C864.69,-1322.86 837.5,-1315.85 813,-1309 780.41,-1299.88 744.78,-1289.16 713.69,-1279.54"/>
<polygon fill="#0d3b80" stroke="#0d3b80" stroke-width="0.5" points="714.35,-1278.47 710.65,-1278.6 713.63,-1280.81 714.35,-1278.47"/>
<text text-anchor="middle" x="832" y="-1301" font-family="Arial" font-size="10.00" fill="#0d3b80">10.01%</text>
<text text-anchor="middle" x="832" y="-1290" font-family="Arial" font-size="10.00" fill="#0d3b80">182500×</text>
</g>
<!-- 138 -->
<g id="node7" class="node">
<title>138</title>
<g id="a_node7"><a xlink:title="C:\Users\darel\OneDrive\Desktop\CAETE\src\hydro_caete.py">
<polygon fill="#0d1575" stroke="#0d1575" points="897.5,-1278 748.5,-1278 748.5,-1226 897.5,-1226 897.5,-1278"/>
<text text-anchor="middle" x="823" y="-1266" font-family="Arial" font-size="10.00" fill="#ffffff">hydro_caete:216:_update_pool</text>
<text text-anchor="middle" x="823" y="-1255" font-family="Arial" font-size="10.00" fill="#ffffff">1.97%</text>
<text text-anchor="middle" x="823" y="-1244" font-family="Arial" font-size="10.00" fill="#ffffff">(1.16%)</text>
<text text-anchor="middle" x="823" y="-1233" font-family="Arial" font-size="10.00" fill="#ffffff">18250×</text>
</a>
</g>
</g>
<!-- 1&#45;&gt;138 -->
<g id="edge6" class="edge">
<title>1&#45;&gt;138</title>
<path fill="none" stroke="#0d1575" stroke-width="0.5" d="M889.36,-1317.68C884.71,-1314.96 880.2,-1312.06 876,-1309 865.22,-1301.14 854.79,-1290.91 846.09,-1281.35"/>
<polygon fill="#0d1575" stroke="#0d1575" stroke-width="0.5" points="847.2,-1280.75 843.95,-1278.97 845.38,-1282.39 847.2,-1280.75"/>
<text text-anchor="middle" x="892.5" y="-1301" font-family="Arial" font-size="10.00" fill="#0d1575">1.97%</text>
<text text-anchor="middle" x="892.5" y="-1290" font-family="Arial" font-size="10.00" fill="#0d1575">18250×</text>
</g>
<!-- 159 -->
<g id="node8" class="node">
<title>159</title>
<g id="a_node8"><a xlink:title="C:\Users\darel\OneDrive\Desktop\CAETE\src\community.py">
<polygon fill="#0d1676" stroke="#0d1676" points="1089,-1278 953,-1278 953,-1226 1089,-1226 1089,-1278"/>
<text text-anchor="middle" x="1021" y="-1266" font-family="Arial" font-size="10.00" fill="#ffffff">community:210:update_lsid</text>
<text text-anchor="middle" x="1021" y="-1255" font-family="Arial" font-size="10.00" fill="#ffffff">2.30%</text>
<text text-anchor="middle" x="1021" y="-1244" font-family="Arial" font-size="10.00" fill="#ffffff">(0.92%)</text>
<text text-anchor="middle" x="1021" y="-1233" font-family="Arial" font-size="10.00" fill="#ffffff">18250×</text>
</a>
</g>
</g>
<!-- 1&#45;&gt;159 -->
<g id="edge7" class="edge">
<title>1&#45;&gt;159</title>
<path fill="none" stroke="#0d1676" stroke-width="0.5" d="M967.61,-1317.93C976.92,-1306.61 987.95,-1293.19 997.57,-1281.5"/>
<polygon fill="#0d1676" stroke="#0d1676" stroke-width="0.5" points="998.48,-1282.31 999.76,-1278.83 996.59,-1280.76 998.48,-1282.31"/>
<text text-anchor="middle" x="1009.5" y="-1301" font-family="Arial" font-size="10.00" fill="#0d1676">2.30%</text>
<text text-anchor="middle" x="1009.5" y="-1290" font-family="Arial" font-size="10.00" fill="#0d1676">18250×</text>
</g>
<!-- 224 -->
<g id="node9" class="node">
<title>224</title>
<g id="a_node9"><a xlink:title="C:\Users\darel\opt\Python&#45;3.11.13dispatcher:344:_compile_for_args\n1.92%\n(0.00%)\n5×ib\site&#45;packages\numba\core\dispatcher.py">
<polygon fill="#0d1575" stroke="#0d1575" points="972,-1156 810,-1156 810,-1104 972,-1104 972,-1156"/>
<text text-anchor="middle" x="891" y="-1144" font-family="Arial" font-size="10.00" fill="#ffffff">dispatcher:344:_compile_for_args</text>
<text text-anchor="middle" x="891" y="-1133" font-family="Arial" font-size="10.00" fill="#ffffff">1.92%</text>
<text text-anchor="middle" x="891" y="-1122" font-family="Arial" font-size="10.00" fill="#ffffff">(0.00%)</text>
<text text-anchor="middle" x="891" y="-1111" font-family="Arial" font-size="10.00" fill="#ffffff">5×</text>
</a>
</g>
</g>
<!-- 1&#45;&gt;224 -->
<g id="edge8" class="edge">
<title>1&#45;&gt;224</title>
<path fill="none" stroke="#0d1274" stroke-width="0.5" d="M934.85,-1317.55C929.63,-1305.74 923.85,-1291.39 920,-1278 905.92,-1229.06 912.43,-1214.63 901,-1165 900.63,-1163.38 900.22,-1161.73 899.79,-1160.06"/>
<polygon fill="#0d1274" stroke="#0d1274" stroke-width="0.5" points="901.04,-1159.96 898.96,-1156.89 898.67,-1160.59 901.04,-1159.96"/>
<text text-anchor="middle" x="934" y="-1255" font-family="Arial" font-size="10.00" fill="#0d1274">1.23%</text>
<text text-anchor="middle" x="934" y="-1244" font-family="Arial" font-size="10.00" fill="#0d1274">3×</text>
</g>
<!-- 241 -->
<g id="node10" class="node">
<title>241</title>
<g id="a_node10"><a xlink:title="C:\Users\darel\OneDrive\Desktop\CAETE\src\output.py">
<polygon fill="#0d1274" stroke="#0d1274" points="1187.5,-1278 1098.5,-1278 1098.5,-1226 1187.5,-1226 1187.5,-1278"/>
<text text-anchor="middle" x="1143" y="-1266" font-family="Arial" font-size="10.00" fill="#ffffff">output:50:update</text>
<text text-anchor="middle" x="1143" y="-1255" font-family="Arial" font-size="10.00" fill="#ffffff">1.22%</text>
<text text-anchor="middle" x="1143" y="-1244" font-family="Arial" font-size="10.00" fill="#ffffff">(1.22%)</text>
<text text-anchor="middle" x="1143" y="-1233" font-family="Arial" font-size="10.00" fill="#ffffff">18250×</text>
</a>
</g>
</g>
<!-- 1&#45;&gt;241 -->
<g id="edge9" class="edge">
<title>1&#45;&gt;241</title>
<path fill="none" stroke="#0d1274" stroke-width="0.5" d="M1005.98,-1318.63C1013.42,-1315.44 1020.9,-1312.18 1028,-1309 1057.21,-1295.91 1064.24,-1292.05 1093,-1278 1093.41,-1277.8 1093.83,-1277.59 1094.25,-1277.39"/>
<polygon fill="#0d1274" stroke="#0d1274" stroke-width="0.5" points="1094.76,-1278.5 1097.37,-1275.86 1093.68,-1276.3 1094.76,-1278.5"/>
<text text-anchor="middle" x="1091.5" y="-1301" font-family="Arial" font-size="10.00" fill="#0d1274">1.22%</text>
<text text-anchor="middle" x="1091.5" y="-1290" font-family="Arial" font-size="10.00" fill="#0d1274">18250×</text>
</g>
<!-- 251 -->
<g id="node11" class="node">
<title>251</title>
<g id="a_node11"><a xlink:title="C:\Users\darel\OneDrive\Desktop\CAETE\src\caete_jit.py">
<polygon fill="#0d1575" stroke="#0d1575" points="1224,-1217 1068,-1217 1068,-1165 1224,-1165 1224,-1217"/>
<text text-anchor="middle" x="1146" y="-1205" font-family="Arial" font-size="10.00" fill="#ffffff">caete_jit:173:masked_mean_2D</text>
<text text-anchor="middle" x="1146" y="-1194" font-family="Arial" font-size="10.00" fill="#ffffff">1.98%</text>
<text text-anchor="middle" x="1146" y="-1183" font-family="Arial" font-size="10.00" fill="#ffffff">(1.52%)</text>
<text text-anchor="middle" x="1146" y="-1172" font-family="Arial" font-size="10.00" fill="#ffffff">54750×</text>
</a>
</g>
</g>
<!-- 1&#45;&gt;251 -->
<g id="edge10" class="edge">
<title>1&#45;&gt;251</title>
<path fill="none" stroke="#0d1575" stroke-width="0.5" d="M1005.91,-1336.1C1071.45,-1327.01 1170.92,-1308.5 1192,-1278 1205.14,-1258.99 1202.41,-1246.63 1192,-1226 1190.99,-1224 1189.81,-1222.1 1188.49,-1220.28"/>
<polygon fill="#0d1575" stroke="#0d1575" stroke-width="0.5" points="1189.57,-1219.67 1186.43,-1217.69 1187.65,-1221.19 1189.57,-1219.67"/>
<text text-anchor="middle" x="1199.5" y="-1301" font-family="Arial" font-size="10.00" fill="#0d1575">1.98%</text>
<text text-anchor="middle" x="1199.5" y="-1290" font-family="Arial" font-size="10.00" fill="#0d1575">54750×</text>
</g>
<!-- 270 -->
<g id="node12" class="node">
<title>270</title>
<g id="a_node12"><a xlink:title="C:\Users\darel\OneDrive\Desktop\CAETE\src\caete_jit.py">
<polygon fill="#0d2179" stroke="#0d2179" points="1357,-1217 1229,-1217 1229,-1165 1357,-1165 1357,-1217"/>
<text text-anchor="middle" x="1293" y="-1205" font-family="Arial" font-size="10.00" fill="#ffffff">caete_jit:111:inflate_array</text>
<text text-anchor="middle" x="1293" y="-1194" font-family="Arial" font-size="10.00" fill="#ffffff">4.64%</text>
<text text-anchor="middle" x="1293" y="-1183" font-family="Arial" font-size="10.00" fill="#ffffff">(3.55%)</text>
<text text-anchor="middle" x="1293" y="-1172" font-family="Arial" font-size="10.00" fill="#ffffff">146000×</text>
</a>
</g>
</g>
<!-- 1&#45;&gt;270 -->
<g id="edge11" class="edge">
<title>1&#45;&gt;270</title>
<path fill="none" stroke="#0d2179" stroke-width="0.5" d="M1005.8,-1342.35C1075.3,-1340.45 1185.64,-1333.52 1218,-1309 1249.91,-1284.83 1229.33,-1258.29 1253,-1226 1254.35,-1224.16 1255.81,-1222.36 1257.36,-1220.6"/>
<polygon fill="#0d2179" stroke="#0d2179" stroke-width="0.5" points="1258.24,-1221.45 1259.72,-1218.05 1256.44,-1219.79 1258.24,-1221.45"/>
<text text-anchor="middle" x="1254" y="-1301" font-family="Arial" font-size="10.00" fill="#0d2179">4.64%</text>
<text text-anchor="middle" x="1254" y="-1290" font-family="Arial" font-size="10.00" fill="#0d2179">146000×</text>
</g>
<!-- 343 -->
<g id="node13" class="node">
<title>343</title>
<g id="a_node13"><a xlink:title="C:\Users\darel\OneDrive\Desktop\CAETE\src\caete_jit.py">
<polygon fill="#0d1074" stroke="#0d1074" points="1396.5,-1278 1257.5,-1278 1257.5,-1226 1396.5,-1226 1396.5,-1278"/>
<text text-anchor="middle" x="1327" y="-1266" font-family="Arial" font-size="10.00" fill="#ffffff">caete_jit:160:masked_mean</text>
<text text-anchor="middle" x="1327" y="-1255" font-family="Arial" font-size="10.00" fill="#ffffff">0.82%</text>
<text text-anchor="middle" x="1327" y="-1244" font-family="Arial" font-size="10.00" fill="#ffffff">(0.82%)</text>
<text text-anchor="middle" x="1327" y="-1233" font-family="Arial" font-size="10.00" fill="#ffffff">91250×</text>
</a>
</g>
</g>
<!-- 1&#45;&gt;343 -->
<g id="edge12" class="edge">
<title>1&#45;&gt;343</title>
<path fill="none" stroke="#0d1074" stroke-width="0.5" d="M1005.68,-1342.52C1089.02,-1340.93 1236.7,-1334.46 1283,-1309 1294.39,-1302.74 1303.84,-1292.18 1311.03,-1281.9"/>
<polygon fill="#0d1074" stroke="#0d1074" stroke-width="0.5" points="1312.01,-1282.65 1312.96,-1279.06 1309.98,-1281.27 1312.01,-1282.65"/>
<text text-anchor="middle" x="1324.5" y="-1301" font-family="Arial" font-size="10.00" fill="#0d1074">0.82%</text>
<text text-anchor="middle" x="1324.5" y="-1290" font-family="Arial" font-size="10.00" fill="#0d1074">91250×</text>
</g>
<!-- 346 -->
<g id="node14" class="node">
<title>346</title>
<g id="a_node14"><a xlink:title="~">
<polygon fill="#0d1274" stroke="#0d1274" points="1634.5,-1278 1405.5,-1278 1405.5,-1226 1634.5,-1226 1634.5,-1278"/>
<text text-anchor="middle" x="1520" y="-1266" font-family="Arial" font-size="10.00" fill="#ffffff">~:0:&lt;method &#39;astype&#39; of &#39;numpy.ndarray&#39; objects&gt;</text>
<text text-anchor="middle" x="1520" y="-1255" font-family="Arial" font-size="10.00" fill="#ffffff">1.31%</text>
<text text-anchor="middle" x="1520" y="-1244" font-family="Arial" font-size="10.00" fill="#ffffff">(1.31%)</text>
<text text-anchor="middle" x="1520" y="-1233" font-family="Arial" font-size="10.00" fill="#ffffff">54750×</text>
</a>
</g>
</g>
<!-- 1&#45;&gt;346 -->
<g id="edge13" class="edge">
<title>1&#45;&gt;346</title>
<path fill="none" stroke="#0d1274" stroke-width="0.5" d="M1005.94,-1341.99C1083.81,-1339.73 1224.9,-1332.45 1343,-1309 1378.24,-1302 1416.35,-1290.48 1448.15,-1279.7"/>
<polygon fill="#0d1274" stroke="#0d1274" stroke-width="0.5" points="1448.36,-1280.92 1451.28,-1278.64 1447.57,-1278.61 1448.36,-1280.92"/>
<text text-anchor="middle" x="1438.5" y="-1301" font-family="Arial" font-size="10.00" fill="#0d1274">1.31%</text>
<text text-anchor="middle" x="1438.5" y="-1290" font-family="Arial" font-size="10.00" fill="#0d1274">54750×</text>
</g>
<!-- 376 -->
<g id="node15" class="node">
<title>376</title>
<g id="a_node15"><a xlink:title="~">
<polygon fill="#0d1074" stroke="#0d1074" points="1896.5,-1278 1643.5,-1278 1643.5,-1226 1896.5,-1226 1896.5,-1278"/>
<text text-anchor="middle" x="1770" y="-1266" font-family="Arial" font-size="10.00" fill="#ffffff">~:0:&lt;method &#39;timetuple&#39; of &#39;datetime.datetime&#39; objects&gt;</text>
<text text-anchor="middle" x="1770" y="-1255" font-family="Arial" font-size="10.00" fill="#ffffff">0.78%</text>
<text text-anchor="middle" x="1770" y="-1244" font-family="Arial" font-size="10.00" fill="#ffffff">(0.78%)</text>
<text text-anchor="middle" x="1770" y="-1233" font-family="Arial" font-size="10.00" fill="#ffffff">18250×</text>
</a>
</g>
</g>
<!-- 1&#45;&gt;376 -->
<g id="edge14" class="edge">
<title>1&#45;&gt;376</title>
<path fill="none" stroke="#0d1074" stroke-width="0.5" d="M1005.69,-1341.04C1100.75,-1337.42 1294.19,-1328.24 1457,-1309 1537.21,-1299.52 1557.62,-1292.79 1639.19,-1277.97"/>
<polygon fill="#0d1074" stroke="#0d1074" stroke-width="0.5" points="1639.15,-1279.22 1642.38,-1277.39 1638.72,-1276.81 1639.15,-1279.22"/>
<text text-anchor="middle" x="1605.5" y="-1301" font-family="Arial" font-size="10.00" fill="#0d1074">0.78%</text>
<text text-anchor="middle" x="1605.5" y="-1290" font-family="Arial" font-size="10.00" fill="#0d1074">18250×</text>
</g>
<!-- 104 -->
<g id="node23" class="node">
<title>104</title>
<g id="a_node23"><a xlink:title="C:\Users\darel\opt\Python&#45;3.11.13fromnumeric:89:_wrapreduction_any_all\n2.17%\n(0.94%)\n18250×ib\site&#45;packages\numpy\_core\fromnumeric.py">
<polygon fill="#0d1676" stroke="#0d1676" points="559,-1156 371,-1156 371,-1104 559,-1104 559,-1156"/>
<text text-anchor="middle" x="465" y="-1144" font-family="Arial" font-size="10.00" fill="#ffffff">fromnumeric:89:_wrapreduction_any_all</text>
<text text-anchor="middle" x="465" y="-1133" font-family="Arial" font-size="10.00" fill="#ffffff">2.17%</text>
<text text-anchor="middle" x="465" y="-1122" font-family="Arial" font-size="10.00" fill="#ffffff">(0.94%)</text>
<text text-anchor="middle" x="465" y="-1111" font-family="Arial" font-size="10.00" fill="#ffffff">18250×</text>
</a>
</g>
</g>
<!-- 105&#45;&gt;104 -->
<g id="edge21" class="edge">
<title>105&#45;&gt;104</title>
<path fill="none" stroke="#0d1676" stroke-width="0.5" d="M459.48,-1225.55C460.59,-1206.54 462.11,-1180.51 463.28,-1160.57"/>
<polygon fill="#0d1676" stroke="#0d1676" stroke-width="0.5" points="464.49,-1160.73 463.47,-1157.17 462.05,-1160.59 464.49,-1160.73"/>
<text text-anchor="middle" x="479.5" y="-1194" font-family="Arial" font-size="10.00" fill="#0d1676">2.17%</text>
<text text-anchor="middle" x="479.5" y="-1183" font-family="Arial" font-size="10.00" fill="#0d1676">18250×</text>
</g>
<!-- 111 -->
<g id="node25" class="node">
<title>111</title>
<g id="a_node25"><a xlink:title="C:\Users\darel\opt\Python&#45;3.11.13_methods:49:_sum\n8.68%\n(1.29%)\n182500×ib\site&#45;packages\numpy\_core\_methods.py">
<polygon fill="#0d347e" stroke="#0d347e" points="670,-1156 570,-1156 570,-1104 670,-1104 670,-1156"/>
<text text-anchor="middle" x="620" y="-1144" font-family="Arial" font-size="10.00" fill="#ffffff">_methods:49:_sum</text>
<text text-anchor="middle" x="620" y="-1133" font-family="Arial" font-size="10.00" fill="#ffffff">8.68%</text>
<text text-anchor="middle" x="620" y="-1122" font-family="Arial" font-size="10.00" fill="#ffffff">(1.29%)</text>
<text text-anchor="middle" x="620" y="-1111" font-family="Arial" font-size="10.00" fill="#ffffff">182500×</text>
</a>
</g>
</g>
<!-- 112&#45;&gt;111 -->
<g id="edge23" class="edge">
<title>112&#45;&gt;111</title>
<path fill="none" stroke="#0d347e" stroke-width="0.5" d="M627.88,-1225.55C626.29,-1206.54 624.13,-1180.51 622.46,-1160.57"/>
<polygon fill="#0d347e" stroke="#0d347e" stroke-width="0.5" points="623.69,-1160.55 622.18,-1157.17 621.25,-1160.76 623.69,-1160.55"/>
<text text-anchor="middle" x="647" y="-1194" font-family="Arial" font-size="10.00" fill="#0d347e">8.68%</text>
<text text-anchor="middle" x="647" y="-1183" font-family="Arial" font-size="10.00" fill="#0d347e">182500×</text>
</g>
<!-- 138&#45;&gt;224 -->
<g id="edge25" class="edge">
<title>138&#45;&gt;224</title>
<path fill="none" stroke="#0d0e73" stroke-width="0.5" d="M837.42,-1225.55C848.33,-1206.3 863.32,-1179.85 874.67,-1159.82"/>
<polygon fill="#0d0e73" stroke="#0d0e73" stroke-width="0.5" points="875.57,-1160.72 876.23,-1157.07 873.44,-1159.51 875.57,-1160.72"/>
<text text-anchor="middle" x="885" y="-1194" font-family="Arial" font-size="10.00" fill="#0d0e73">0.37%</text>
<text text-anchor="middle" x="885" y="-1183" font-family="Arial" font-size="10.00" fill="#0d0e73">1×</text>
</g>
<!-- 159&#45;&gt;224 -->
<g id="edge28" class="edge">
<title>159&#45;&gt;224</title>
<path fill="none" stroke="#0d0e73" stroke-width="0.5" d="M993.43,-1225.55C972.32,-1206.06 943.21,-1179.19 921.42,-1159.08"/>
<polygon fill="#0d0e73" stroke="#0d0e73" stroke-width="0.5" points="922.49,-1158.4 919.09,-1156.93 920.83,-1160.2 922.49,-1158.4"/>
<text text-anchor="middle" x="997" y="-1194" font-family="Arial" font-size="10.00" fill="#0d0e73">0.32%</text>
<text text-anchor="middle" x="997" y="-1183" font-family="Arial" font-size="10.00" fill="#0d0e73">1×</text>
</g>
<!-- 160 -->
<g id="node30" class="node">
<title>160</title>
<g id="a_node30"><a xlink:title="C:\Users\darel\OneDrive\Desktop\CAETE\src\community.py">
<polygon fill="#0d1174" stroke="#0d1174" points="1155,-1156 981,-1156 981,-1104 1155,-1104 1155,-1156"/>
<text text-anchor="middle" x="1068" y="-1144" font-family="Arial" font-size="10.00" fill="#ffffff">community:39:_update_living_status</text>
<text text-anchor="middle" x="1068" y="-1133" font-family="Arial" font-size="10.00" fill="#ffffff">1.05%</text>
<text text-anchor="middle" x="1068" y="-1122" font-family="Arial" font-size="10.00" fill="#ffffff">(0.86%)</text>
<text text-anchor="middle" x="1068" y="-1111" font-family="Arial" font-size="10.00" fill="#ffffff">18250×</text>
</a>
</g>
</g>
<!-- 159&#45;&gt;160 -->
<g id="edge27" class="edge">
<title>159&#45;&gt;160</title>
<path fill="none" stroke="#0d1174" stroke-width="0.5" d="M1018.98,-1225.56C1018.64,-1207.68 1020.43,-1183.71 1030,-1165 1030.91,-1163.22 1031.95,-1161.49 1033.1,-1159.82"/>
<polygon fill="#0d1174" stroke="#0d1174" stroke-width="0.5" points="1034.04,-1160.61 1035.14,-1157.07 1032.07,-1159.15 1034.04,-1160.61"/>
<text text-anchor="middle" x="1046.5" y="-1194" font-family="Arial" font-size="10.00" fill="#0d1174">1.05%</text>
<text text-anchor="middle" x="1046.5" y="-1183" font-family="Arial" font-size="10.00" fill="#0d1174">18250×</text>
</g>
<!-- 26 -->
<g id="node18" class="node">
<title>26</title>
<g id="a_node18"><a xlink:title="C:\Users\darel\opt\Python&#45;3.11.13dispatcher:862:compile\n1.88%\n(0.00%)\n5×ib\site&#45;packages\numba\core\dispatcher.py">
<polygon fill="#0d1575" stroke="#0d1575" points="949.5,-1064 832.5,-1064 832.5,-1012 949.5,-1012 949.5,-1064"/>
<text text-anchor="middle" x="891" y="-1052" font-family="Arial" font-size="10.00" fill="#ffffff">dispatcher:862:compile</text>
<text text-anchor="middle" x="891" y="-1041" font-family="Arial" font-size="10.00" fill="#ffffff">1.88%</text>
<text text-anchor="middle" x="891" y="-1030" font-family="Arial" font-size="10.00" fill="#ffffff">(0.00%)</text>
<text text-anchor="middle" x="891" y="-1019" font-family="Arial" font-size="10.00" fill="#ffffff">5×</text>
</a>
</g>
</g>
<!-- 224&#45;&gt;26 -->
<g id="edge31" class="edge">
<title>224&#45;&gt;26</title>
<path fill="none" stroke="#0d1575" stroke-width="0.5" d="M891,-1103.93C891,-1092.91 891,-1079.88 891,-1068.4"/>
<polygon fill="#0d1575" stroke="#0d1575" stroke-width="0.5" points="892.23,-1068.5 891,-1065 889.78,-1068.5 892.23,-1068.5"/>
<text text-anchor="middle" x="905" y="-1087" font-family="Arial" font-size="10.00" fill="#0d1575">1.88%</text>
<text text-anchor="middle" x="905" y="-1076" font-family="Arial" font-size="10.00" fill="#0d1575">5×</text>
</g>
<!-- 269 -->
<g id="node31" class="node">
<title>269</title>
<g id="a_node31"><a xlink:title="C:\Users\darel\opt\Python&#45;3.11.13serialize:30:_numba_unpickle\n1.74%\n(1.74%)\n219000×ib\site&#45;packages\numba\core\serialize.py">
<polygon fill="#0d1475" stroke="#0d1475" points="1245.5,-1064 1100.5,-1064 1100.5,-1012 1245.5,-1012 1245.5,-1064"/>
<text text-anchor="middle" x="1173" y="-1052" font-family="Arial" font-size="10.00" fill="#ffffff">serialize:30:_numba_unpickle</text>
<text text-anchor="middle" x="1173" y="-1041" font-family="Arial" font-size="10.00" fill="#ffffff">1.74%</text>
<text text-anchor="middle" x="1173" y="-1030" font-family="Arial" font-size="10.00" fill="#ffffff">(1.74%)</text>
<text text-anchor="middle" x="1173" y="-1019" font-family="Arial" font-size="10.00" fill="#ffffff">219000×</text>
</a>
</g>
</g>
<!-- 251&#45;&gt;269 -->
<g id="edge34" class="edge">
<title>251&#45;&gt;269</title>
<path fill="none" stroke="#0d0f73" stroke-width="0.5" d="M1156.48,-1164.6C1157.44,-1161.73 1158.3,-1158.82 1159,-1156 1166.23,-1126.71 1169.78,-1092.34 1171.49,-1068.46"/>
<polygon fill="#0d0f73" stroke="#0d0f73" stroke-width="0.5" points="1172.69,-1068.76 1171.71,-1065.18 1170.25,-1068.59 1172.69,-1068.76"/>
<text text-anchor="middle" x="1184.5" y="-1133" font-family="Arial" font-size="10.00" fill="#0d0f73">0.46%</text>
<text text-anchor="middle" x="1184.5" y="-1122" font-family="Arial" font-size="10.00" fill="#0d0f73">54750×</text>
</g>
<!-- 270&#45;&gt;269 -->
<g id="edge37" class="edge">
<title>270&#45;&gt;269</title>
<path fill="none" stroke="#0d1174" stroke-width="0.5" d="M1272.91,-1164.73C1251.54,-1137.83 1217.8,-1095.38 1195.54,-1067.36"/>
<polygon fill="#0d1174" stroke="#0d1174" stroke-width="0.5" points="1196.76,-1066.93 1193.62,-1064.95 1194.84,-1068.45 1196.76,-1066.93"/>
<text text-anchor="middle" x="1284" y="-1133" font-family="Arial" font-size="10.00" fill="#0d1174">1.09%</text>
<text text-anchor="middle" x="1284" y="-1122" font-family="Arial" font-size="10.00" fill="#0d1174">146000×</text>
</g>
<!-- 4 -->
<g id="node16" class="node">
<title>4</title>
<g id="a_node16"><a xlink:title="&lt;string&gt;">
<polygon fill="#ff0000" stroke="#ff0000" points="1000.5,-1462 893.5,-1462 893.5,-1410 1000.5,-1410 1000.5,-1462"/>
<text text-anchor="middle" x="947" y="-1450" font-family="Arial" font-size="10.00" fill="#ffffff">&lt;string&gt;:1:&lt;module&gt;</text>
<text text-anchor="middle" x="947" y="-1439" font-family="Arial" font-size="10.00" fill="#ffffff">100.00%</text>
<text text-anchor="middle" x="947" y="-1428" font-family="Arial" font-size="10.00" fill="#ffffff">(0.00%)</text>
<text text-anchor="middle" x="947" y="-1417" font-family="Arial" font-size="10.00" fill="#ffffff">1×</text>
</a>
</g>
</g>
<!-- 4&#45;&gt;1 -->
<g id="edge15" class="edge">
<title>4&#45;&gt;1</title>
<path fill="none" stroke="#ff0000" stroke-width="4" d="M947,-1409.93C947,-1402.58 947,-1394.34 947,-1386.26"/>
<polygon fill="#ff0000" stroke="#ff0000" stroke-width="4" points="950.5,-1386.3 947,-1376.3 943.5,-1386.3 950.5,-1386.3"/>
<text text-anchor="middle" x="966.5" y="-1393" font-family="Arial" font-size="10.00" fill="#ff0000">100.00%</text>
<text text-anchor="middle" x="966.5" y="-1382" font-family="Arial" font-size="10.00" fill="#ff0000">1×</text>
</g>
<!-- 15 -->
<g id="node17" class="node">
<title>15</title>
<g id="a_node17"><a xlink:title="~">
<polygon fill="#ff0000" stroke="#ff0000" points="1030.5,-1554 863.5,-1554 863.5,-1502 1030.5,-1502 1030.5,-1554"/>
<text text-anchor="middle" x="947" y="-1542" font-family="Arial" font-size="10.00" fill="#ffffff">~:0:&lt;built&#45;in method builtins.exec&gt;</text>
<text text-anchor="middle" x="947" y="-1531" font-family="Arial" font-size="10.00" fill="#ffffff">100.00%</text>
<text text-anchor="middle" x="947" y="-1520" font-family="Arial" font-size="10.00" fill="#ffffff">(0.00%)</text>
<text text-anchor="middle" x="947" y="-1509" font-family="Arial" font-size="10.00" fill="#ffffff">1×</text>
</a>
</g>
</g>
<!-- 15&#45;&gt;4 -->
<g id="edge16" class="edge">
<title>15&#45;&gt;4</title>
<path fill="none" stroke="#ff0000" stroke-width="4" d="M947,-1501.93C947,-1494.58 947,-1486.34 947,-1478.26"/>
<polygon fill="#ff0000" stroke="#ff0000" stroke-width="4" points="950.5,-1478.3 947,-1468.3 943.5,-1478.3 950.5,-1478.3"/>
<text text-anchor="middle" x="966.5" y="-1485" font-family="Arial" font-size="10.00" fill="#ff0000">100.00%</text>
<text text-anchor="middle" x="966.5" y="-1474" font-family="Arial" font-size="10.00" fill="#ff0000">1×</text>
</g>
<!-- 94 -->
<g id="node19" class="node">
<title>94</title>
<g id="a_node19"><a xlink:title="C:\Users\darel\opt\Python&#45;3.11.13caching:713:load_overload\n1.86%\n(0.00%)\n5×ib\site&#45;packages\numba\core\caching.py">
<polygon fill="#0d1475" stroke="#0d1475" points="956.5,-972 825.5,-972 825.5,-920 956.5,-920 956.5,-972"/>
<text text-anchor="middle" x="891" y="-960" font-family="Arial" font-size="10.00" fill="#ffffff">caching:713:load_overload</text>
<text text-anchor="middle" x="891" y="-949" font-family="Arial" font-size="10.00" fill="#ffffff">1.86%</text>
<text text-anchor="middle" x="891" y="-938" font-family="Arial" font-size="10.00" fill="#ffffff">(0.00%)</text>
<text text-anchor="middle" x="891" y="-927" font-family="Arial" font-size="10.00" fill="#ffffff">5×</text>
</a>
</g>
</g>
<!-- 26&#45;&gt;94 -->
<g id="edge17" class="edge">
<title>26&#45;&gt;94</title>
<path fill="none" stroke="#0d1475" stroke-width="0.5" d="M891,-1011.93C891,-1000.91 891,-987.88 891,-976.4"/>
<polygon fill="#0d1475" stroke="#0d1475" stroke-width="0.5" points="892.23,-976.5 891,-973 889.78,-976.5 892.23,-976.5"/>
<text text-anchor="middle" x="905" y="-995" font-family="Arial" font-size="10.00" fill="#0d1475">1.86%</text>
<text text-anchor="middle" x="905" y="-984" font-family="Arial" font-size="10.00" fill="#0d1475">5×</text>
</g>
<!-- 302 -->
<g id="node22" class="node">
<title>302</title>
<g id="a_node22"><a xlink:title="C:\Users\darel\opt\Python&#45;3.11.13caching:724:_load_overload\n1.81%\n(0.00%)\n5×ib\site&#45;packages\numba\core\caching.py">
<polygon fill="#0d1475" stroke="#0d1475" points="959,-880 823,-880 823,-828 959,-828 959,-880"/>
<text text-anchor="middle" x="891" y="-868" font-family="Arial" font-size="10.00" fill="#ffffff">caching:724:_load_overload</text>
<text text-anchor="middle" x="891" y="-857" font-family="Arial" font-size="10.00" fill="#ffffff">1.81%</text>
<text text-anchor="middle" x="891" y="-846" font-family="Arial" font-size="10.00" fill="#ffffff">(0.00%)</text>
<text text-anchor="middle" x="891" y="-835" font-family="Arial" font-size="10.00" fill="#ffffff">5×</text>
</a>
</g>
</g>
<!-- 94&#45;&gt;302 -->
<g id="edge19" class="edge">
<title>94&#45;&gt;302</title>
<path fill="none" stroke="#0d1475" stroke-width="0.5" d="M891,-919.93C891,-908.91 891,-895.88 891,-884.4"/>
<polygon fill="#0d1475" stroke="#0d1475" stroke-width="0.5" points="892.23,-884.5 891,-881 889.78,-884.5 892.23,-884.5"/>
<text text-anchor="middle" x="905" y="-903" font-family="Arial" font-size="10.00" fill="#0d1475">1.81%</text>
<text text-anchor="middle" x="905" y="-892" font-family="Arial" font-size="10.00" fill="#0d1475">5×</text>
</g>
<!-- 93 -->
<g id="node20" class="node">
<title>93</title>
<g id="a_node20"><a xlink:title="C:\Users\darel\opt\Python&#45;3.11.13codegen:1003:_finalize_specific\n1.12%\n(0.00%)\n5×ib\site&#45;packages\numba\core\codegen.py">
<polygon fill="#0d1174" stroke="#0d1174" points="968,-328 814,-328 814,-276 968,-276 968,-328"/>
<text text-anchor="middle" x="891" y="-316" font-family="Arial" font-size="10.00" fill="#ffffff">codegen:1003:_finalize_specific</text>
<text text-anchor="middle" x="891" y="-305" font-family="Arial" font-size="10.00" fill="#ffffff">1.12%</text>
<text text-anchor="middle" x="891" y="-294" font-family="Arial" font-size="10.00" fill="#ffffff">(0.00%)</text>
<text text-anchor="middle" x="891" y="-283" font-family="Arial" font-size="10.00" fill="#ffffff">5×</text>
</a>
</g>
</g>
<!-- 185 -->
<g id="node21" class="node">
<title>185</title>
<g id="a_node21"><a xlink:title="C:\Users\darel\opt\Python&#45;3.11.13codegen:1065:wrapper\n1.13%\n(0.00%)\n43×ib\site&#45;packages\numba\core\codegen.py">
<polygon fill="#0d1174" stroke="#0d1174" points="948,-236 834,-236 834,-184 948,-184 948,-236"/>
<text text-anchor="middle" x="891" y="-224" font-family="Arial" font-size="10.00" fill="#ffffff">codegen:1065:wrapper</text>
<text text-anchor="middle" x="891" y="-213" font-family="Arial" font-size="10.00" fill="#ffffff">1.13%</text>
<text text-anchor="middle" x="891" y="-202" font-family="Arial" font-size="10.00" fill="#ffffff">(0.00%)</text>
<text text-anchor="middle" x="891" y="-191" font-family="Arial" font-size="10.00" fill="#ffffff">43×</text>
</a>
</g>
</g>
<!-- 93&#45;&gt;185 -->
<g id="edge18" class="edge">
<title>93&#45;&gt;185</title>
<path fill="none" stroke="#0d1174" stroke-width="0.5" d="M891,-275.93C891,-264.91 891,-251.88 891,-240.4"/>
<polygon fill="#0d1174" stroke="#0d1174" stroke-width="0.5" points="892.23,-240.5 891,-237 889.78,-240.5 892.23,-240.5"/>
<text text-anchor="middle" x="905" y="-259" font-family="Arial" font-size="10.00" fill="#0d1174">1.10%</text>
<text text-anchor="middle" x="905" y="-248" font-family="Arial" font-size="10.00" fill="#0d1174">5×</text>
</g>
<!-- 152 -->
<g id="node29" class="node">
<title>152</title>
<g id="a_node29"><a xlink:title="C:\Users\darel\opt\Python&#45;3.11.13executionengine:94:finalize_object\n1.10%\n(0.00%)\n5×ib\site&#45;packages\llvmlite\binding\executionengine.py">
<polygon fill="#0d1174" stroke="#0d1174" points="973.5,-144 808.5,-144 808.5,-92 973.5,-92 973.5,-144"/>
<text text-anchor="middle" x="891" y="-132" font-family="Arial" font-size="10.00" fill="#ffffff">executionengine:94:finalize_object</text>
<text text-anchor="middle" x="891" y="-121" font-family="Arial" font-size="10.00" fill="#ffffff">1.10%</text>
<text text-anchor="middle" x="891" y="-110" font-family="Arial" font-size="10.00" fill="#ffffff">(0.00%)</text>
<text text-anchor="middle" x="891" y="-99" font-family="Arial" font-size="10.00" fill="#ffffff">5×</text>
</a>
</g>
</g>
<!-- 185&#45;&gt;152 -->
<g id="edge30" class="edge">
<title>185&#45;&gt;152</title>
<path fill="none" stroke="#0d1174" stroke-width="0.5" d="M891,-183.93C891,-172.91 891,-159.88 891,-148.4"/>
<polygon fill="#0d1174" stroke="#0d1174" stroke-width="0.5" points="892.23,-148.5 891,-145 889.78,-148.5 892.23,-148.5"/>
<text text-anchor="middle" x="905" y="-167" font-family="Arial" font-size="10.00" fill="#0d1174">1.10%</text>
<text text-anchor="middle" x="905" y="-156" font-family="Arial" font-size="10.00" fill="#0d1174">5×</text>
</g>
<!-- 264 -->
<g id="node34" class="node">
<title>264</title>
<g id="a_node34"><a xlink:title="C:\Users\darel\opt\Python&#45;3.11.13caching:477:rebuild\n1.69%\n(0.00%)\n5×ib\site&#45;packages\numba\core\caching.py">
<polygon fill="#0d1475" stroke="#0d1475" points="941.5,-788 840.5,-788 840.5,-736 941.5,-736 941.5,-788"/>
<text text-anchor="middle" x="891" y="-776" font-family="Arial" font-size="10.00" fill="#ffffff">caching:477:rebuild</text>
<text text-anchor="middle" x="891" y="-765" font-family="Arial" font-size="10.00" fill="#ffffff">1.69%</text>
<text text-anchor="middle" x="891" y="-754" font-family="Arial" font-size="10.00" fill="#ffffff">(0.00%)</text>
<text text-anchor="middle" x="891" y="-743" font-family="Arial" font-size="10.00" fill="#ffffff">5×</text>
</a>
</g>
</g>
<!-- 302&#45;&gt;264 -->
<g id="edge38" class="edge">
<title>302&#45;&gt;264</title>
<path fill="none" stroke="#0d1475" stroke-width="0.5" d="M891,-827.93C891,-816.91 891,-803.88 891,-792.4"/>
<polygon fill="#0d1475" stroke="#0d1475" stroke-width="0.5" points="892.23,-792.5 891,-789 889.78,-792.5 892.23,-792.5"/>
<text text-anchor="middle" x="905" y="-811" font-family="Arial" font-size="10.00" fill="#0d1475">1.69%</text>
<text text-anchor="middle" x="905" y="-800" font-family="Arial" font-size="10.00" fill="#0d1475">5×</text>
</g>
<!-- 350 -->
<g id="node24" class="node">
<title>350</title>
<g id="a_node24"><a xlink:title="~">
<polygon fill="#0d327d" stroke="#0d327d" points="689,-1064 469,-1064 469,-1012 689,-1012 689,-1064"/>
<text text-anchor="middle" x="579" y="-1052" font-family="Arial" font-size="10.00" fill="#ffffff">~:0:&lt;method &#39;reduce&#39; of &#39;numpy.ufunc&#39; objects&gt;</text>
<text text-anchor="middle" x="579" y="-1041" font-family="Arial" font-size="10.00" fill="#ffffff">8.25%</text>
<text text-anchor="middle" x="579" y="-1030" font-family="Arial" font-size="10.00" fill="#ffffff">(8.25%)</text>
<text text-anchor="middle" x="579" y="-1019" font-family="Arial" font-size="10.00" fill="#ffffff">200750×</text>
</a>
</g>
</g>
<!-- 104&#45;&gt;350 -->
<g id="edge20" class="edge">
<title>104&#45;&gt;350</title>
<path fill="none" stroke="#0d1074" stroke-width="0.5" d="M497.06,-1103.69C511.51,-1092.28 528.62,-1078.77 543.46,-1067.06"/>
<polygon fill="#0d1074" stroke="#0d1074" stroke-width="0.5" points="544.2,-1068.03 546.19,-1064.9 542.69,-1066.11 544.2,-1068.03"/>
<text text-anchor="middle" x="552.5" y="-1087" font-family="Arial" font-size="10.00" fill="#0d1074">0.86%</text>
<text text-anchor="middle" x="552.5" y="-1076" font-family="Arial" font-size="10.00" fill="#0d1074">18250×</text>
</g>
<!-- 111&#45;&gt;350 -->
<g id="edge22" class="edge">
<title>111&#45;&gt;350</title>
<path fill="none" stroke="#0d2e7c" stroke-width="0.5" d="M608.58,-1103.93C603.51,-1092.81 597.52,-1079.65 592.26,-1068.1"/>
<polygon fill="#0d2e7c" stroke="#0d2e7c" stroke-width="0.5" points="593.38,-1067.61 590.82,-1064.94 591.15,-1068.63 593.38,-1067.61"/>
<text text-anchor="middle" x="624" y="-1087" font-family="Arial" font-size="10.00" fill="#0d2e7c">7.39%</text>
<text text-anchor="middle" x="624" y="-1076" font-family="Arial" font-size="10.00" fill="#0d2e7c">182500×</text>
</g>
<!-- 120 -->
<g id="node26" class="node">
<title>120</title>
<g id="a_node26"><a xlink:title="C:\Users\darel\opt\Python&#45;3.11.13ffi:195:__call__\n1.56%\n(1.28%)\n875×ib\site&#45;packages\llvmlite\binding\ffi.py">
<polygon fill="#0d1375" stroke="#0d1375" points="931.5,-52 850.5,-52 850.5,0 931.5,0 931.5,-52"/>
<text text-anchor="middle" x="891" y="-40" font-family="Arial" font-size="10.00" fill="#ffffff">ffi:195:__call__</text>
<text text-anchor="middle" x="891" y="-29" font-family="Arial" font-size="10.00" fill="#ffffff">1.56%</text>
<text text-anchor="middle" x="891" y="-18" font-family="Arial" font-size="10.00" fill="#ffffff">(1.28%)</text>
<text text-anchor="middle" x="891" y="-7" font-family="Arial" font-size="10.00" fill="#ffffff">875×</text>
</a>
</g>
</g>
<!-- 127 -->
<g id="node27" class="node">
<title>127</title>
<g id="a_node27"><a xlink:title="C:\Users\darel\opt\Python&#45;3.11.13codegen:932:_unserialize\n1.65%\n(0.00%)\n5×ib\site&#45;packages\numba\core\codegen.py">
<polygon fill="#0d1475" stroke="#0d1475" points="954.5,-512 827.5,-512 827.5,-460 954.5,-460 954.5,-512"/>
<text text-anchor="middle" x="891" y="-500" font-family="Arial" font-size="10.00" fill="#ffffff">codegen:932:_unserialize</text>
<text text-anchor="middle" x="891" y="-489" font-family="Arial" font-size="10.00" fill="#ffffff">1.65%</text>
<text text-anchor="middle" x="891" y="-478" font-family="Arial" font-size="10.00" fill="#ffffff">(0.00%)</text>
<text text-anchor="middle" x="891" y="-467" font-family="Arial" font-size="10.00" fill="#ffffff">5×</text>
</a>
</g>
</g>
<!-- 248 -->
<g id="node28" class="node">
<title>248</title>
<g id="a_node28"><a xlink:title="C:\Users\darel\opt\Python&#45;3.11.13codegen:788:_finalize_final_module\n1.16%\n(0.00%)\n5×ib\site&#45;packages\numba\core\codegen.py">
<polygon fill="#0d1274" stroke="#0d1274" points="976,-420 806,-420 806,-368 976,-368 976,-420"/>
<text text-anchor="middle" x="891" y="-408" font-family="Arial" font-size="10.00" fill="#ffffff">codegen:788:_finalize_final_module</text>
<text text-anchor="middle" x="891" y="-397" font-family="Arial" font-size="10.00" fill="#ffffff">1.16%</text>
<text text-anchor="middle" x="891" y="-386" font-family="Arial" font-size="10.00" fill="#ffffff">(0.00%)</text>
<text text-anchor="middle" x="891" y="-375" font-family="Arial" font-size="10.00" fill="#ffffff">5×</text>
</a>
</g>
</g>
<!-- 127&#45;&gt;248 -->
<g id="edge24" class="edge">
<title>127&#45;&gt;248</title>
<path fill="none" stroke="#0d1274" stroke-width="0.5" d="M891,-459.93C891,-448.91 891,-435.88 891,-424.4"/>
<polygon fill="#0d1274" stroke="#0d1274" stroke-width="0.5" points="892.23,-424.5 891,-421 889.78,-424.5 892.23,-424.5"/>
<text text-anchor="middle" x="905" y="-443" font-family="Arial" font-size="10.00" fill="#0d1274">1.16%</text>
<text text-anchor="middle" x="905" y="-432" font-family="Arial" font-size="10.00" fill="#0d1274">5×</text>
</g>
<!-- 248&#45;&gt;93 -->
<g id="edge33" class="edge">
<title>248&#45;&gt;93</title>
<path fill="none" stroke="#0d1174" stroke-width="0.5" d="M891,-367.93C891,-356.91 891,-343.88 891,-332.4"/>
<polygon fill="#0d1174" stroke="#0d1174" stroke-width="0.5" points="892.23,-332.5 891,-329 889.78,-332.5 892.23,-332.5"/>
<text text-anchor="middle" x="905" y="-351" font-family="Arial" font-size="10.00" fill="#0d1174">1.12%</text>
<text text-anchor="middle" x="905" y="-340" font-family="Arial" font-size="10.00" fill="#0d1174">5×</text>
</g>
<!-- 152&#45;&gt;120 -->
<g id="edge26" class="edge">
<title>152&#45;&gt;120</title>
<path fill="none" stroke="#0d1174" stroke-width="0.5" d="M891,-91.93C891,-80.91 891,-67.88 891,-56.4"/>
<polygon fill="#0d1174" stroke="#0d1174" stroke-width="0.5" points="892.23,-56.5 891,-53 889.78,-56.5 892.23,-56.5"/>
<text text-anchor="middle" x="905" y="-75" font-family="Arial" font-size="10.00" fill="#0d1174">1.10%</text>
<text text-anchor="middle" x="905" y="-64" font-family="Arial" font-size="10.00" fill="#0d1174">5×</text>
</g>
<!-- 160&#45;&gt;269 -->
<g id="edge29" class="edge">
<title>160&#45;&gt;269</title>
<path fill="none" stroke="#0d0e73" stroke-width="0.5" d="M1097.41,-1103.59C1108.54,-1093.99 1121.34,-1082.98 1133,-1073 1135.39,-1070.96 1137.86,-1068.84 1140.35,-1066.72"/>
<polygon fill="#0d0e73" stroke="#0d0e73" stroke-width="0.5" points="1140.83,-1067.92 1142.7,-1064.72 1139.24,-1066.06 1140.83,-1067.92"/>
<text text-anchor="middle" x="1149.5" y="-1087" font-family="Arial" font-size="10.00" fill="#0d0e73">0.19%</text>
<text text-anchor="middle" x="1149.5" y="-1076" font-family="Arial" font-size="10.00" fill="#0d0e73">18250×</text>
</g>
<!-- 242 -->
<g id="node32" class="node">
<title>242</title>
<g id="a_node32"><a xlink:title="C:\Users\darel\opt\Python&#45;3.11.13codegen:1164:unserialize_library\n1.65%\n(0.00%)\n5×ib\site&#45;packages\numba\core\codegen.py">
<polygon fill="#0d1475" stroke="#0d1475" points="970,-604 812,-604 812,-552 970,-552 970,-604"/>
<text text-anchor="middle" x="891" y="-592" font-family="Arial" font-size="10.00" fill="#ffffff">codegen:1164:unserialize_library</text>
<text text-anchor="middle" x="891" y="-581" font-family="Arial" font-size="10.00" fill="#ffffff">1.65%</text>
<text text-anchor="middle" x="891" y="-570" font-family="Arial" font-size="10.00" fill="#ffffff">(0.00%)</text>
<text text-anchor="middle" x="891" y="-559" font-family="Arial" font-size="10.00" fill="#ffffff">5×</text>
</a>
</g>
</g>
<!-- 242&#45;&gt;127 -->
<g id="edge32" class="edge">
<title>242&#45;&gt;127</title>
<path fill="none" stroke="#0d1475" stroke-width="0.5" d="M891,-551.93C891,-540.91 891,-527.88 891,-516.4"/>
<polygon fill="#0d1475" stroke="#0d1475" stroke-width="0.5" points="892.23,-516.5 891,-513 889.78,-516.5 892.23,-516.5"/>
<text text-anchor="middle" x="905" y="-535" font-family="Arial" font-size="10.00" fill="#0d1475">1.65%</text>
<text text-anchor="middle" x="905" y="-524" font-family="Arial" font-size="10.00" fill="#0d1475">5×</text>
</g>
<!-- 263 -->
<g id="node33" class="node">
<title>263</title>
<g id="a_node33"><a xlink:title="C:\Users\darel\opt\Python&#45;3.11.13compiler:227:_rebuild\n1.69%\n(0.00%)\n5×ib\site&#45;packages\numba\core\compiler.py">
<polygon fill="#0d1475" stroke="#0d1475" points="945.5,-696 836.5,-696 836.5,-644 945.5,-644 945.5,-696"/>
<text text-anchor="middle" x="891" y="-684" font-family="Arial" font-size="10.00" fill="#ffffff">compiler:227:_rebuild</text>
<text text-anchor="middle" x="891" y="-673" font-family="Arial" font-size="10.00" fill="#ffffff">1.69%</text>
<text text-anchor="middle" x="891" y="-662" font-family="Arial" font-size="10.00" fill="#ffffff">(0.00%)</text>
<text text-anchor="middle" x="891" y="-651" font-family="Arial" font-size="10.00" fill="#ffffff">5×</text>
</a>
</g>
</g>
<!-- 263&#45;&gt;242 -->
<g id="edge35" class="edge">
<title>263&#45;&gt;242</title>
<path fill="none" stroke="#0d1475" stroke-width="0.5" d="M891,-643.93C891,-632.91 891,-619.88 891,-608.4"/>
<polygon fill="#0d1475" stroke="#0d1475" stroke-width="0.5" points="892.23,-608.5 891,-605 889.78,-608.5 892.23,-608.5"/>
<text text-anchor="middle" x="905" y="-627" font-family="Arial" font-size="10.00" fill="#0d1475">1.65%</text>
<text text-anchor="middle" x="905" y="-616" font-family="Arial" font-size="10.00" fill="#0d1475">5×</text>
</g>
<!-- 264&#45;&gt;263 -->
<g id="edge36" class="edge">
<title>264&#45;&gt;263</title>
<path fill="none" stroke="#0d1475" stroke-width="0.5" d="M891,-735.93C891,-724.91 891,-711.88 891,-700.4"/>
<polygon fill="#0d1475" stroke="#0d1475" stroke-width="0.5" points="892.23,-700.5 891,-697 889.78,-700.5 892.23,-700.5"/>
<text text-anchor="middle" x="905" y="-719" font-family="Arial" font-size="10.00" fill="#0d1475">1.69%</text>
<text text-anchor="middle" x="905" y="-708" font-family="Arial" font-size="10.00" fill="#0d1475">5×</text>
</g>
</g>
</svg>
