<?xml version="1.0" encoding="UTF-8" standalone="no"?>
<!DOCTYPE svg PUBLIC "-//W3C//DTD SVG 1.1//EN"
 "http://www.w3.org/Graphics/SVG/1.1/DTD/svg11.dtd">
<!-- Generated by graphviz version 2.43.0 (0)
 -->
<!-- Title: %3 Pages: 1 -->
<svg width="1540pt" height="1072pt"
 viewBox="0.00 0.00 1540.00 1072.00" xmlns="http://www.w3.org/2000/svg" xmlns:xlink="http://www.w3.org/1999/xlink">
<g id="graph0" class="graph" transform="scale(1 1) rotate(0) translate(4 1068)">
<title>%3</title>
<g id="a_graph0"><a xlink:title=" ">
<polygon fill="white" stroke="transparent" points="-4,4 -4,-1068 1536,-1068 1536,4 -4,4"/>
</a>
</g>
<!-- 44 -->
<g id="node1" class="node">
<title>44</title>
<g id="a_node1"><a xlink:title="/home/jpdarela/.pyenv/versions/3.14.2/lib/python3.14/site&#45;packages/numba/core/caching.py">
<polygon fill="#0d1274" stroke="#0d1274" points="970.5,-512 838.5,-512 838.5,-460 970.5,-460 970.5,-512"/>
<text text-anchor="middle" x="904.5" y="-500" font-family="Arial" font-size="10.00" fill="#ffffff">caching:713:load_overload</text>
<text text-anchor="middle" x="904.5" y="-489" font-family="Arial" font-size="10.00" fill="#ffffff">1.33%</text>
<text text-anchor="middle" x="904.5" y="-478" font-family="Arial" font-size="10.00" fill="#ffffff">(0.00%)</text>
<text text-anchor="middle" x="904.5" y="-467" font-family="Arial" font-size="10.00" fill="#ffffff">5×</text>
</a>
</g>
</g>
<!-- 90 -->
<g id="node2" class="node">
<title>90</title>
<g id="a_node2"><a xlink:title="/home/jpdarela/.pyenv/versions/3.14.2/lib/python3.14/site&#45;packages/numba/core/caching.py">
<polygon fill="#0d1274" stroke="#0d1274" points="973,-420 836,-420 836,-368 973,-368 973,-420"/>
<text text-anchor="middle" x="904.5" y="-408" font-family="Arial" font-size="10.00" fill="#ffffff">caching:724:_load_overload</text>
<text text-anchor="middle" x="904.5" y="-397" font-family="Arial" font-size="10.00" fill="#ffffff">1.28%</text>
<text text-anchor="middle" x="904.5" y="-386" font-family="Arial" font-size="10.00" fill="#ffffff">(0.00%)</text>
<text text-anchor="middle" x="904.5" y="-375" font-family="Arial" font-size="10.00" fill="#ffffff">5×</text>
</a>
</g>
</g>
<!-- 44&#45;&gt;90 -->
<g id="edge1" class="edge">
<title>44&#45;&gt;90</title>
<path fill="none" stroke="#0d1274" stroke-width="0.5" d="M904.5,-459.93C904.5,-448.71 904.5,-435.42 904.5,-423.8"/>
<polygon fill="#0d1274" stroke="#0d1274" stroke-width="0.5" points="905.73,-423.75 904.5,-420.25 903.28,-423.75 905.73,-423.75"/>
<text text-anchor="middle" x="918.5" y="-443" font-family="Arial" font-size="10.00" fill="#0d1274">1.28%</text>
<text text-anchor="middle" x="918.5" y="-432" font-family="Arial" font-size="10.00" fill="#0d1274">5×</text>
</g>
<!-- 74 -->
<g id="node10" class="node">
<title>74</title>
<g id="a_node10"><a xlink:title="/home/jpdarela/.pyenv/versions/3.14.2/lib/python3.14/site&#45;packages/numba/core/caching.py">
<polygon fill="#0d0f73" stroke="#0d0f73" points="902,-328 801,-328 801,-276 902,-276 902,-328"/>
<text text-anchor="middle" x="851.5" y="-316" font-family="Arial" font-size="10.00" fill="#ffffff">caching:477:rebuild</text>
<text text-anchor="middle" x="851.5" y="-305" font-family="Arial" font-size="10.00" fill="#ffffff">0.56%</text>
<text text-anchor="middle" x="851.5" y="-294" font-family="Arial" font-size="10.00" fill="#ffffff">(0.00%)</text>
<text text-anchor="middle" x="851.5" y="-283" font-family="Arial" font-size="10.00" fill="#ffffff">5×</text>
</a>
</g>
</g>
<!-- 90&#45;&gt;74 -->
<g id="edge22" class="edge">
<title>90&#45;&gt;74</title>
<path fill="none" stroke="#0d0f73" stroke-width="0.5" d="M889.74,-367.93C883.07,-356.61 875.17,-343.19 868.28,-331.5"/>
<polygon fill="#0d0f73" stroke="#0d0f73" stroke-width="0.5" points="869.2,-330.64 866.37,-328.25 867.09,-331.89 869.2,-330.64"/>
<text text-anchor="middle" x="898.5" y="-351" font-family="Arial" font-size="10.00" fill="#0d0f73">0.56%</text>
<text text-anchor="middle" x="898.5" y="-340" font-family="Arial" font-size="10.00" fill="#0d0f73">5×</text>
</g>
<!-- 92 -->
<g id="node21" class="node">
<title>92</title>
<g id="a_node21"><a xlink:title="/home/jpdarela/.pyenv/versions/3.14.2/lib/python3.14/site&#45;packages/numba/core/caching.py">
<polygon fill="#0d1074" stroke="#0d1074" points="1001.5,-328 911.5,-328 911.5,-276 1001.5,-276 1001.5,-328"/>
<text text-anchor="middle" x="956.5" y="-316" font-family="Arial" font-size="10.00" fill="#ffffff">caching:567:load</text>
<text text-anchor="middle" x="956.5" y="-305" font-family="Arial" font-size="10.00" fill="#ffffff">0.70%</text>
<text text-anchor="middle" x="956.5" y="-294" font-family="Arial" font-size="10.00" fill="#ffffff">(0.00%)</text>
<text text-anchor="middle" x="956.5" y="-283" font-family="Arial" font-size="10.00" fill="#ffffff">5×</text>
</a>
</g>
</g>
<!-- 90&#45;&gt;92 -->
<g id="edge23" class="edge">
<title>90&#45;&gt;92</title>
<path fill="none" stroke="#0d1074" stroke-width="0.5" d="M918.98,-367.93C925.52,-356.61 933.28,-343.19 940.03,-331.5"/>
<polygon fill="#0d1074" stroke="#0d1074" stroke-width="0.5" points="941.22,-331.89 941.91,-328.25 939.1,-330.67 941.22,-331.89"/>
<text text-anchor="middle" x="951.5" y="-351" font-family="Arial" font-size="10.00" fill="#0d1074">0.70%</text>
<text text-anchor="middle" x="951.5" y="-340" font-family="Arial" font-size="10.00" fill="#0d1074">5×</text>
</g>
<!-- 45 -->
<g id="node3" class="node">
<title>45</title>
<g id="a_node3"><a xlink:title="/home/jpdarela/.pyenv/versions/3.14.2/lib/python3.14/site&#45;packages/numba/core/dispatcher.py">
<polygon fill="#0d1274" stroke="#0d1274" points="963,-604 846,-604 846,-552 963,-552 963,-604"/>
<text text-anchor="middle" x="904.5" y="-592" font-family="Arial" font-size="10.00" fill="#ffffff">dispatcher:862:compile</text>
<text text-anchor="middle" x="904.5" y="-581" font-family="Arial" font-size="10.00" fill="#ffffff">1.36%</text>
<text text-anchor="middle" x="904.5" y="-570" font-family="Arial" font-size="10.00" fill="#ffffff">(0.00%)</text>
<text text-anchor="middle" x="904.5" y="-559" font-family="Arial" font-size="10.00" fill="#ffffff">5×</text>
</a>
</g>
</g>
<!-- 45&#45;&gt;44 -->
<g id="edge2" class="edge">
<title>45&#45;&gt;44</title>
<path fill="none" stroke="#0d1274" stroke-width="0.5" d="M904.5,-551.93C904.5,-540.71 904.5,-527.42 904.5,-515.8"/>
<polygon fill="#0d1274" stroke="#0d1274" stroke-width="0.5" points="905.73,-515.75 904.5,-512.25 903.28,-515.75 905.73,-515.75"/>
<text text-anchor="middle" x="918.5" y="-535" font-family="Arial" font-size="10.00" fill="#0d1274">1.33%</text>
<text text-anchor="middle" x="918.5" y="-524" font-family="Arial" font-size="10.00" fill="#0d1274">5×</text>
</g>
<!-- 46 -->
<g id="node4" class="node">
<title>46</title>
<g id="a_node4"><a xlink:title="/home/jpdarela/.pyenv/versions/3.14.2/lib/python3.14/site&#45;packages/numpy/_core/fromnumeric.py">
<polygon fill="#0d1676" stroke="#0d1676" points="189,-696 0,-696 0,-644 189,-644 189,-696"/>
<text text-anchor="middle" x="94.5" y="-684" font-family="Arial" font-size="10.00" fill="#ffffff">fromnumeric:89:_wrapreduction_any_all</text>
<text text-anchor="middle" x="94.5" y="-673" font-family="Arial" font-size="10.00" fill="#ffffff">2.24%</text>
<text text-anchor="middle" x="94.5" y="-662" font-family="Arial" font-size="10.00" fill="#ffffff">(1.01%)</text>
<text text-anchor="middle" x="94.5" y="-651" font-family="Arial" font-size="10.00" fill="#ffffff">18250×</text>
</a>
</g>
</g>
<!-- 301 -->
<g id="node5" class="node">
<title>301</title>
<g id="a_node5"><a xlink:title="~">
<polygon fill="#0d367e" stroke="#0d367e" points="289.5,-604 65.5,-604 65.5,-552 289.5,-552 289.5,-604"/>
<text text-anchor="middle" x="177.5" y="-592" font-family="Arial" font-size="10.00" fill="#ffffff">~:0:&lt;method &#39;reduce&#39; of &#39;numpy.ufunc&#39; objects&gt;</text>
<text text-anchor="middle" x="177.5" y="-581" font-family="Arial" font-size="10.00" fill="#ffffff">9.05%</text>
<text text-anchor="middle" x="177.5" y="-570" font-family="Arial" font-size="10.00" fill="#ffffff">(9.05%)</text>
<text text-anchor="middle" x="177.5" y="-559" font-family="Arial" font-size="10.00" fill="#ffffff">200750×</text>
</a>
</g>
</g>
<!-- 46&#45;&gt;301 -->
<g id="edge3" class="edge">
<title>46&#45;&gt;301</title>
<path fill="none" stroke="#0d1174" stroke-width="0.5" d="M117.62,-643.93C128.23,-632.42 140.86,-618.73 151.77,-606.9"/>
<polygon fill="#0d1174" stroke="#0d1174" stroke-width="0.5" points="152.74,-607.65 154.22,-604.25 150.94,-605.99 152.74,-607.65"/>
<text text-anchor="middle" x="163" y="-627" font-family="Arial" font-size="10.00" fill="#0d1174">1.13%</text>
<text text-anchor="middle" x="163" y="-616" font-family="Arial" font-size="10.00" fill="#0d1174">18250×</text>
</g>
<!-- 47 -->
<g id="node6" class="node">
<title>47</title>
<g id="a_node6"><a xlink:title="/home/jpdarela/.pyenv/versions/3.14.2/lib/python3.14/site&#45;packages/numpy/_core/fromnumeric.py">
<polygon fill="#0d1976" stroke="#0d1976" points="137,-788 30,-788 30,-736 137,-736 137,-788"/>
<text text-anchor="middle" x="83.5" y="-776" font-family="Arial" font-size="10.00" fill="#ffffff">fromnumeric:2589:all</text>
<text text-anchor="middle" x="83.5" y="-765" font-family="Arial" font-size="10.00" fill="#ffffff">2.85%</text>
<text text-anchor="middle" x="83.5" y="-754" font-family="Arial" font-size="10.00" fill="#ffffff">(0.60%)</text>
<text text-anchor="middle" x="83.5" y="-743" font-family="Arial" font-size="10.00" fill="#ffffff">18250×</text>
</a>
</g>
</g>
<!-- 47&#45;&gt;46 -->
<g id="edge4" class="edge">
<title>47&#45;&gt;46</title>
<path fill="none" stroke="#0d1676" stroke-width="0.5" d="M86.56,-735.93C87.94,-724.71 89.56,-711.42 90.98,-699.8"/>
<polygon fill="#0d1676" stroke="#0d1676" stroke-width="0.5" points="92.21,-699.87 91.41,-696.25 89.77,-699.57 92.21,-699.87"/>
<text text-anchor="middle" x="107" y="-719" font-family="Arial" font-size="10.00" fill="#0d1676">2.24%</text>
<text text-anchor="middle" x="107" y="-708" font-family="Arial" font-size="10.00" fill="#0d1676">18250×</text>
</g>
<!-- 51 -->
<g id="node7" class="node">
<title>51</title>
<g id="a_node7"><a xlink:title="/home/jpdarela/.pyenv/versions/3.14.2/lib/python3.14/site&#45;packages/numba/core/codegen.py">
<polygon fill="#0d0f73" stroke="#0d0f73" points="915,-52 788,-52 788,0 915,0 915,-52"/>
<text text-anchor="middle" x="851.5" y="-40" font-family="Arial" font-size="10.00" fill="#ffffff">codegen:936:_unserialize</text>
<text text-anchor="middle" x="851.5" y="-29" font-family="Arial" font-size="10.00" fill="#ffffff">0.53%</text>
<text text-anchor="middle" x="851.5" y="-18" font-family="Arial" font-size="10.00" fill="#ffffff">(0.00%)</text>
<text text-anchor="middle" x="851.5" y="-7" font-family="Arial" font-size="10.00" fill="#ffffff">5×</text>
</a>
</g>
</g>
<!-- 73 -->
<g id="node8" class="node">
<title>73</title>
<g id="a_node8"><a xlink:title="/home/jpdarela/.pyenv/versions/3.14.2/lib/python3.14/site&#45;packages/numba/core/compiler.py">
<polygon fill="#0d0f73" stroke="#0d0f73" points="906,-236 797,-236 797,-184 906,-184 906,-236"/>
<text text-anchor="middle" x="851.5" y="-224" font-family="Arial" font-size="10.00" fill="#ffffff">compiler:227:_rebuild</text>
<text text-anchor="middle" x="851.5" y="-213" font-family="Arial" font-size="10.00" fill="#ffffff">0.56%</text>
<text text-anchor="middle" x="851.5" y="-202" font-family="Arial" font-size="10.00" fill="#ffffff">(0.00%)</text>
<text text-anchor="middle" x="851.5" y="-191" font-family="Arial" font-size="10.00" fill="#ffffff">5×</text>
</a>
</g>
</g>
<!-- 88 -->
<g id="node9" class="node">
<title>88</title>
<g id="a_node9"><a xlink:title="/home/jpdarela/.pyenv/versions/3.14.2/lib/python3.14/site&#45;packages/numba/core/codegen.py">
<polygon fill="#0d0f73" stroke="#0d0f73" points="930.5,-144 772.5,-144 772.5,-92 930.5,-92 930.5,-144"/>
<text text-anchor="middle" x="851.5" y="-132" font-family="Arial" font-size="10.00" fill="#ffffff">codegen:1168:unserialize_library</text>
<text text-anchor="middle" x="851.5" y="-121" font-family="Arial" font-size="10.00" fill="#ffffff">0.53%</text>
<text text-anchor="middle" x="851.5" y="-110" font-family="Arial" font-size="10.00" fill="#ffffff">(0.00%)</text>
<text text-anchor="middle" x="851.5" y="-99" font-family="Arial" font-size="10.00" fill="#ffffff">5×</text>
</a>
</g>
</g>
<!-- 73&#45;&gt;88 -->
<g id="edge5" class="edge">
<title>73&#45;&gt;88</title>
<path fill="none" stroke="#0d0f73" stroke-width="0.5" d="M851.5,-183.93C851.5,-172.71 851.5,-159.42 851.5,-147.8"/>
<polygon fill="#0d0f73" stroke="#0d0f73" stroke-width="0.5" points="852.73,-147.75 851.5,-144.25 850.28,-147.75 852.73,-147.75"/>
<text text-anchor="middle" x="865.5" y="-167" font-family="Arial" font-size="10.00" fill="#0d0f73">0.53%</text>
<text text-anchor="middle" x="865.5" y="-156" font-family="Arial" font-size="10.00" fill="#0d0f73">5×</text>
</g>
<!-- 88&#45;&gt;51 -->
<g id="edge21" class="edge">
<title>88&#45;&gt;51</title>
<path fill="none" stroke="#0d0f73" stroke-width="0.5" d="M851.5,-91.93C851.5,-80.71 851.5,-67.42 851.5,-55.8"/>
<polygon fill="#0d0f73" stroke="#0d0f73" stroke-width="0.5" points="852.73,-55.75 851.5,-52.25 850.28,-55.75 852.73,-55.75"/>
<text text-anchor="middle" x="865.5" y="-75" font-family="Arial" font-size="10.00" fill="#0d0f73">0.53%</text>
<text text-anchor="middle" x="865.5" y="-64" font-family="Arial" font-size="10.00" fill="#0d0f73">5×</text>
</g>
<!-- 74&#45;&gt;73 -->
<g id="edge6" class="edge">
<title>74&#45;&gt;73</title>
<path fill="none" stroke="#0d0f73" stroke-width="0.5" d="M851.5,-275.93C851.5,-264.71 851.5,-251.42 851.5,-239.8"/>
<polygon fill="#0d0f73" stroke="#0d0f73" stroke-width="0.5" points="852.73,-239.75 851.5,-236.25 850.28,-239.75 852.73,-239.75"/>
<text text-anchor="middle" x="865.5" y="-259" font-family="Arial" font-size="10.00" fill="#0d0f73">0.56%</text>
<text text-anchor="middle" x="865.5" y="-248" font-family="Arial" font-size="10.00" fill="#0d0f73">5×</text>
</g>
<!-- 75 -->
<g id="node11" class="node">
<title>75</title>
<g id="a_node11"><a xlink:title="/home/jpdarela/.pyenv/versions/3.14.2/lib/python3.14/site&#45;packages/numba/core/dispatcher.py">
<polygon fill="#0d1375" stroke="#0d1375" points="986,-696 823,-696 823,-644 986,-644 986,-696"/>
<text text-anchor="middle" x="904.5" y="-684" font-family="Arial" font-size="10.00" fill="#ffffff">dispatcher:344:_compile_for_args</text>
<text text-anchor="middle" x="904.5" y="-673" font-family="Arial" font-size="10.00" fill="#ffffff">1.40%</text>
<text text-anchor="middle" x="904.5" y="-662" font-family="Arial" font-size="10.00" fill="#ffffff">(0.00%)</text>
<text text-anchor="middle" x="904.5" y="-651" font-family="Arial" font-size="10.00" fill="#ffffff">5×</text>
</a>
</g>
</g>
<!-- 75&#45;&gt;45 -->
<g id="edge7" class="edge">
<title>75&#45;&gt;45</title>
<path fill="none" stroke="#0d1274" stroke-width="0.5" d="M904.5,-643.93C904.5,-632.71 904.5,-619.42 904.5,-607.8"/>
<polygon fill="#0d1274" stroke="#0d1274" stroke-width="0.5" points="905.73,-607.75 904.5,-604.25 903.28,-607.75 905.73,-607.75"/>
<text text-anchor="middle" x="918.5" y="-627" font-family="Arial" font-size="10.00" fill="#0d1274">1.36%</text>
<text text-anchor="middle" x="918.5" y="-616" font-family="Arial" font-size="10.00" fill="#0d1274">5×</text>
</g>
<!-- 76 -->
<g id="node12" class="node">
<title>76</title>
<g id="a_node12"><a xlink:title="/mnt/c/Users/darel/OneDrive/Desktop/CAETE/src/hydro_caete.py">
<polygon fill="#0d1375" stroke="#0d1375" points="979,-788 830,-788 830,-736 979,-736 979,-788"/>
<text text-anchor="middle" x="904.5" y="-776" font-family="Arial" font-size="10.00" fill="#ffffff">hydro_caete:216:_update_pool</text>
<text text-anchor="middle" x="904.5" y="-765" font-family="Arial" font-size="10.00" fill="#ffffff">1.57%</text>
<text text-anchor="middle" x="904.5" y="-754" font-family="Arial" font-size="10.00" fill="#ffffff">(1.32%)</text>
<text text-anchor="middle" x="904.5" y="-743" font-family="Arial" font-size="10.00" fill="#ffffff">18250×</text>
</a>
</g>
</g>
<!-- 76&#45;&gt;75 -->
<g id="edge8" class="edge">
<title>76&#45;&gt;75</title>
<path fill="none" stroke="#0d0e73" stroke-width="0.5" d="M904.5,-735.93C904.5,-724.71 904.5,-711.42 904.5,-699.8"/>
<polygon fill="#0d0e73" stroke="#0d0e73" stroke-width="0.5" points="905.73,-699.75 904.5,-696.25 903.28,-699.75 905.73,-699.75"/>
<text text-anchor="middle" x="918.5" y="-719" font-family="Arial" font-size="10.00" fill="#0d0e73">0.26%</text>
<text text-anchor="middle" x="918.5" y="-708" font-family="Arial" font-size="10.00" fill="#0d0e73">1×</text>
</g>
<!-- 77 -->
<g id="node13" class="node">
<title>77</title>
<g id="a_node13"><a xlink:title="/mnt/c/Users/darel/OneDrive/Desktop/CAETE/src/caete.py">
<polygon fill="#ff0000" stroke="#ff0000" points="744,-880 627,-880 627,-828 744,-828 744,-880"/>
<text text-anchor="middle" x="685.5" y="-868" font-family="Arial" font-size="10.00" fill="#ffffff">caete:1026:run_gridcell</text>
<text text-anchor="middle" x="685.5" y="-857" font-family="Arial" font-size="10.00" fill="#ffffff">100.00%</text>
<text text-anchor="middle" x="685.5" y="-846" font-family="Arial" font-size="10.00" fill="#ffffff">(74.72%)</text>
<text text-anchor="middle" x="685.5" y="-835" font-family="Arial" font-size="10.00" fill="#ffffff">1×</text>
</a>
</g>
</g>
<!-- 77&#45;&gt;47 -->
<g id="edge9" class="edge">
<title>77&#45;&gt;47</title>
<path fill="none" stroke="#0d1976" stroke-width="0.5" d="M626.9,-851.34C545.22,-848.33 392.74,-840.19 264.5,-819 208.88,-809.81 194.89,-806.1 141.5,-788 141.14,-787.88 140.77,-787.75 140.41,-787.63"/>
<polygon fill="#0d1976" stroke="#0d1976" stroke-width="0.5" points="140.81,-786.47 137.1,-786.46 140,-788.78 140.81,-786.47"/>
<text text-anchor="middle" x="281" y="-811" font-family="Arial" font-size="10.00" fill="#0d1976">2.85%</text>
<text text-anchor="middle" x="281" y="-800" font-family="Arial" font-size="10.00" fill="#0d1976">18250×</text>
</g>
<!-- 77&#45;&gt;75 -->
<g id="edge10" class="edge">
<title>77&#45;&gt;75</title>
<path fill="none" stroke="#0d1074" stroke-width="0.5" d="M744.13,-850.27C877.23,-843.46 1193.18,-823.68 1224.5,-788 1294.95,-707.74 1106.88,-682.49 989.88,-674.58"/>
<polygon fill="#0d1074" stroke="#0d1074" stroke-width="0.5" points="989.67,-673.34 986.1,-674.33 989.51,-675.79 989.67,-673.34"/>
<text text-anchor="middle" x="1253.5" y="-765" font-family="Arial" font-size="10.00" fill="#0d1074">0.84%</text>
<text text-anchor="middle" x="1253.5" y="-754" font-family="Arial" font-size="10.00" fill="#0d1074">3×</text>
</g>
<!-- 77&#45;&gt;76 -->
<g id="edge11" class="edge">
<title>77&#45;&gt;76</title>
<path fill="none" stroke="#0d1375" stroke-width="0.5" d="M744.19,-828.88C773.77,-816.72 809.71,-801.95 840.06,-789.48"/>
<polygon fill="#0d1375" stroke="#0d1375" stroke-width="0.5" points="840.58,-790.59 843.36,-788.13 839.65,-788.33 840.58,-790.59"/>
<text text-anchor="middle" x="838" y="-811" font-family="Arial" font-size="10.00" fill="#0d1375">1.57%</text>
<text text-anchor="middle" x="838" y="-800" font-family="Arial" font-size="10.00" fill="#0d1375">18250×</text>
</g>
<!-- 78 -->
<g id="node14" class="node">
<title>78</title>
<g id="a_node14"><a xlink:title="/mnt/c/Users/darel/OneDrive/Desktop/CAETE/src/community.py">
<polygon fill="#0d1675" stroke="#0d1675" points="568.5,-788 432.5,-788 432.5,-736 568.5,-736 568.5,-788"/>
<text text-anchor="middle" x="500.5" y="-776" font-family="Arial" font-size="10.00" fill="#ffffff">community:210:update_lsid</text>
<text text-anchor="middle" x="500.5" y="-765" font-family="Arial" font-size="10.00" fill="#ffffff">2.09%</text>
<text text-anchor="middle" x="500.5" y="-754" font-family="Arial" font-size="10.00" fill="#ffffff">(1.57%)</text>
<text text-anchor="middle" x="500.5" y="-743" font-family="Arial" font-size="10.00" fill="#ffffff">18250×</text>
</a>
</g>
</g>
<!-- 77&#45;&gt;78 -->
<g id="edge12" class="edge">
<title>77&#45;&gt;78</title>
<path fill="none" stroke="#0d1675" stroke-width="0.5" d="M631.21,-827.92C624.89,-824.94 618.54,-821.92 612.5,-819 593.07,-809.62 571.87,-799.09 553.19,-789.72"/>
<polygon fill="#0d1675" stroke="#0d1675" stroke-width="0.5" points="553.65,-788.58 549.98,-788.11 552.55,-790.77 553.65,-788.58"/>
<text text-anchor="middle" x="629" y="-811" font-family="Arial" font-size="10.00" fill="#0d1675">2.09%</text>
<text text-anchor="middle" x="629" y="-800" font-family="Arial" font-size="10.00" fill="#0d1675">18250×</text>
</g>
<!-- 93 -->
<g id="node15" class="node">
<title>93</title>
<g id="a_node15"><a xlink:title="/mnt/c/Users/darel/OneDrive/Desktop/CAETE/src/output.py">
<polygon fill="#0d0f73" stroke="#0d0f73" points="667,-788 578,-788 578,-736 667,-736 667,-788"/>
<text text-anchor="middle" x="622.5" y="-776" font-family="Arial" font-size="10.00" fill="#ffffff">output:50:update</text>
<text text-anchor="middle" x="622.5" y="-765" font-family="Arial" font-size="10.00" fill="#ffffff">0.57%</text>
<text text-anchor="middle" x="622.5" y="-754" font-family="Arial" font-size="10.00" fill="#ffffff">(0.57%)</text>
<text text-anchor="middle" x="622.5" y="-743" font-family="Arial" font-size="10.00" fill="#ffffff">18250×</text>
</a>
</g>
</g>
<!-- 77&#45;&gt;93 -->
<g id="edge13" class="edge">
<title>77&#45;&gt;93</title>
<path fill="none" stroke="#0d0f73" stroke-width="0.5" d="M667.95,-827.93C659.96,-816.52 650.47,-802.96 642.24,-791.2"/>
<polygon fill="#0d0f73" stroke="#0d0f73" stroke-width="0.5" points="643.18,-790.41 640.17,-788.25 641.18,-791.82 643.18,-790.41"/>
<text text-anchor="middle" x="678" y="-811" font-family="Arial" font-size="10.00" fill="#0d0f73">0.57%</text>
<text text-anchor="middle" x="678" y="-800" font-family="Arial" font-size="10.00" fill="#0d0f73">18250×</text>
</g>
<!-- 106 -->
<g id="node16" class="node">
<title>106</title>
<g id="a_node16"><a xlink:title="/mnt/c/Users/darel/OneDrive/Desktop/CAETE/src/caete.py">
<polygon fill="#0d1074" stroke="#0d1074" points="821,-788 676,-788 676,-736 821,-736 821,-788"/>
<text text-anchor="middle" x="748.5" y="-776" font-family="Arial" font-size="10.00" fill="#ffffff">caete:218:catch_out_carbon3</text>
<text text-anchor="middle" x="748.5" y="-765" font-family="Arial" font-size="10.00" fill="#ffffff">0.82%</text>
<text text-anchor="middle" x="748.5" y="-754" font-family="Arial" font-size="10.00" fill="#ffffff">(0.82%)</text>
<text text-anchor="middle" x="748.5" y="-743" font-family="Arial" font-size="10.00" fill="#ffffff">18250×</text>
</a>
</g>
</g>
<!-- 77&#45;&gt;106 -->
<g id="edge14" class="edge">
<title>77&#45;&gt;106</title>
<path fill="none" stroke="#0d1074" stroke-width="0.5" d="M703.05,-827.93C711.04,-816.52 720.53,-802.96 728.76,-791.2"/>
<polygon fill="#0d1074" stroke="#0d1074" stroke-width="0.5" points="729.82,-791.82 730.83,-788.25 727.82,-790.41 729.82,-791.82"/>
<text text-anchor="middle" x="741" y="-811" font-family="Arial" font-size="10.00" fill="#0d1074">0.82%</text>
<text text-anchor="middle" x="741" y="-800" font-family="Arial" font-size="10.00" fill="#0d1074">18250×</text>
</g>
<!-- 186 -->
<g id="node17" class="node">
<title>186</title>
<g id="a_node17"><a xlink:title="/home/jpdarela/.pyenv/versions/3.14.2/lib/python3.14/site&#45;packages/numba/core/serialize.py">
<polygon fill="#0d1475" stroke="#0d1475" points="509,-696 364,-696 364,-644 509,-644 509,-696"/>
<text text-anchor="middle" x="436.5" y="-684" font-family="Arial" font-size="10.00" fill="#ffffff">serialize:30:_numba_unpickle</text>
<text text-anchor="middle" x="436.5" y="-673" font-family="Arial" font-size="10.00" fill="#ffffff">1.65%</text>
<text text-anchor="middle" x="436.5" y="-662" font-family="Arial" font-size="10.00" fill="#ffffff">(1.65%)</text>
<text text-anchor="middle" x="436.5" y="-651" font-family="Arial" font-size="10.00" fill="#ffffff">219000×</text>
</a>
</g>
</g>
<!-- 77&#45;&gt;186 -->
<g id="edge15" class="edge">
<title>77&#45;&gt;186</title>
<path fill="none" stroke="#0d1375" stroke-width="0.5" d="M627,-848.65C549.38,-841.52 418.72,-824.34 389.5,-788 368.19,-761.5 390.05,-724.08 410.53,-698.75"/>
<polygon fill="#0d1375" stroke="#0d1375" stroke-width="0.5" points="411.49,-699.51 412.76,-696.03 409.59,-697.96 411.49,-699.51"/>
<text text-anchor="middle" x="408.5" y="-765" font-family="Arial" font-size="10.00" fill="#0d1375">1.44%</text>
<text text-anchor="middle" x="408.5" y="-754" font-family="Arial" font-size="10.00" fill="#0d1375">200750×</text>
</g>
<!-- 296 -->
<g id="node18" class="node">
<title>296</title>
<g id="a_node18"><a xlink:title="~">
<polygon fill="#0d1375" stroke="#0d1375" points="1219.5,-788 987.5,-788 987.5,-736 1219.5,-736 1219.5,-788"/>
<text text-anchor="middle" x="1103.5" y="-776" font-family="Arial" font-size="10.00" fill="#ffffff">~:0:&lt;method &#39;astype&#39; of &#39;numpy.ndarray&#39; objects&gt;</text>
<text text-anchor="middle" x="1103.5" y="-765" font-family="Arial" font-size="10.00" fill="#ffffff">1.55%</text>
<text text-anchor="middle" x="1103.5" y="-754" font-family="Arial" font-size="10.00" fill="#ffffff">(1.55%)</text>
<text text-anchor="middle" x="1103.5" y="-743" font-family="Arial" font-size="10.00" fill="#ffffff">54750×</text>
</a>
</g>
</g>
<!-- 77&#45;&gt;296 -->
<g id="edge16" class="edge">
<title>77&#45;&gt;296</title>
<path fill="none" stroke="#0d1375" stroke-width="0.5" d="M744.14,-841.74C777.19,-835.3 819.2,-826.94 856.5,-819 901.05,-809.52 949.99,-798.55 992.47,-788.84"/>
<polygon fill="#0d1375" stroke="#0d1375" stroke-width="0.5" points="992.9,-789.99 996.04,-788.02 992.35,-787.61 992.9,-789.99"/>
<text text-anchor="middle" x="969" y="-811" font-family="Arial" font-size="10.00" fill="#0d1375">1.55%</text>
<text text-anchor="middle" x="969" y="-800" font-family="Arial" font-size="10.00" fill="#0d1375">54750×</text>
</g>
<!-- 297 -->
<g id="node19" class="node">
<title>297</title>
<g id="a_node19"><a xlink:title="~">
<polygon fill="#0d3e80" stroke="#0d3e80" points="367,-788 146,-788 146,-736 367,-736 367,-788"/>
<text text-anchor="middle" x="256.5" y="-776" font-family="Arial" font-size="10.00" fill="#ffffff">~:0:&lt;method &#39;sum&#39; of &#39;numpy.ndarray&#39; objects&gt;</text>
<text text-anchor="middle" x="256.5" y="-765" font-family="Arial" font-size="10.00" fill="#ffffff">10.63%</text>
<text text-anchor="middle" x="256.5" y="-754" font-family="Arial" font-size="10.00" fill="#ffffff">(1.63%)</text>
<text text-anchor="middle" x="256.5" y="-743" font-family="Arial" font-size="10.00" fill="#ffffff">182500×</text>
</a>
</g>
</g>
<!-- 77&#45;&gt;297 -->
<g id="edge17" class="edge">
<title>77&#45;&gt;297</title>
<path fill="none" stroke="#0d3e80" stroke-width="0.5" d="M626.87,-850.66C542.6,-846.71 391.72,-837.3 340.5,-819 322.24,-812.48 304.08,-801.13 289.33,-790.36"/>
<polygon fill="#0d3e80" stroke="#0d3e80" stroke-width="0.5" points="289.98,-789.31 286.43,-788.21 288.52,-791.28 289.98,-789.31"/>
<text text-anchor="middle" x="359.5" y="-811" font-family="Arial" font-size="10.00" fill="#0d3e80">10.63%</text>
<text text-anchor="middle" x="359.5" y="-800" font-family="Arial" font-size="10.00" fill="#0d3e80">182500×</text>
</g>
<!-- 374 -->
<g id="node20" class="node">
<title>374</title>
<g id="a_node20"><a xlink:title="~">
<polygon fill="#0d1274" stroke="#0d1274" points="1532,-788 1275,-788 1275,-736 1532,-736 1532,-788"/>
<text text-anchor="middle" x="1403.5" y="-776" font-family="Arial" font-size="10.00" fill="#ffffff">~:0:&lt;method &#39;timetuple&#39; of &#39;datetime.datetime&#39; objects&gt;</text>
<text text-anchor="middle" x="1403.5" y="-765" font-family="Arial" font-size="10.00" fill="#ffffff">1.34%</text>
<text text-anchor="middle" x="1403.5" y="-754" font-family="Arial" font-size="10.00" fill="#ffffff">(1.34%)</text>
<text text-anchor="middle" x="1403.5" y="-743" font-family="Arial" font-size="10.00" fill="#ffffff">18250×</text>
</a>
</g>
</g>
<!-- 77&#45;&gt;374 -->
<g id="edge18" class="edge">
<title>77&#45;&gt;374</title>
<path fill="none" stroke="#0d1274" stroke-width="0.5" d="M744.05,-851.5C867.35,-847.99 1150.16,-838.09 1244.5,-819 1277.3,-812.36 1312.52,-800.48 1341.46,-789.36"/>
<polygon fill="#0d1274" stroke="#0d1274" stroke-width="0.5" points="1342.13,-790.42 1344.96,-788.01 1341.25,-788.13 1342.13,-790.42"/>
<text text-anchor="middle" x="1336" y="-811" font-family="Arial" font-size="10.00" fill="#0d1274">1.34%</text>
<text text-anchor="middle" x="1336" y="-800" font-family="Arial" font-size="10.00" fill="#0d1274">18250×</text>
</g>
<!-- 78&#45;&gt;75 -->
<g id="edge19" class="edge">
<title>78&#45;&gt;75</title>
<path fill="none" stroke="#0d0e73" stroke-width="0.5" d="M568.8,-737.29C570.38,-736.85 571.95,-736.42 573.5,-736 656.02,-713.88 751.99,-695.86 819.27,-684.45"/>
<polygon fill="#0d0e73" stroke="#0d0e73" stroke-width="0.5" points="819.61,-685.64 822.85,-683.85 819.2,-683.22 819.61,-685.64"/>
<text text-anchor="middle" x="714.5" y="-719" font-family="Arial" font-size="10.00" fill="#0d0e73">0.30%</text>
<text text-anchor="middle" x="714.5" y="-708" font-family="Arial" font-size="10.00" fill="#0d0e73">1×</text>
</g>
<!-- 78&#45;&gt;186 -->
<g id="edge20" class="edge">
<title>78&#45;&gt;186</title>
<path fill="none" stroke="#0d0e73" stroke-width="0.5" d="M482.67,-735.93C474.56,-724.52 464.92,-710.96 456.55,-699.2"/>
<polygon fill="#0d0e73" stroke="#0d0e73" stroke-width="0.5" points="457.48,-698.39 454.45,-696.25 455.48,-699.81 457.48,-698.39"/>
<text text-anchor="middle" x="493" y="-719" font-family="Arial" font-size="10.00" fill="#0d0e73">0.22%</text>
<text text-anchor="middle" x="493" y="-708" font-family="Arial" font-size="10.00" fill="#0d0e73">18250×</text>
</g>
<!-- 302 -->
<g id="node24" class="node">
<title>302</title>
<g id="a_node24"><a xlink:title="/home/jpdarela/.pyenv/versions/3.14.2/lib/python3.14/site&#45;packages/numpy/_core/_methods.py">
<polygon fill="#0d367e" stroke="#0d367e" points="303.5,-696 203.5,-696 203.5,-644 303.5,-644 303.5,-696"/>
<text text-anchor="middle" x="253.5" y="-684" font-family="Arial" font-size="10.00" fill="#ffffff">_methods:49:_sum</text>
<text text-anchor="middle" x="253.5" y="-673" font-family="Arial" font-size="10.00" fill="#ffffff">9.01%</text>
<text text-anchor="middle" x="253.5" y="-662" font-family="Arial" font-size="10.00" fill="#ffffff">(1.09%)</text>
<text text-anchor="middle" x="253.5" y="-651" font-family="Arial" font-size="10.00" fill="#ffffff">182500×</text>
</a>
</g>
</g>
<!-- 297&#45;&gt;302 -->
<g id="edge26" class="edge">
<title>297&#45;&gt;302</title>
<path fill="none" stroke="#0d367e" stroke-width="0.5" d="M255.66,-735.93C255.29,-724.71 254.85,-711.42 254.46,-699.8"/>
<polygon fill="#0d367e" stroke="#0d367e" stroke-width="0.5" points="255.68,-699.7 254.34,-696.25 253.23,-699.79 255.68,-699.7"/>
<text text-anchor="middle" x="274.5" y="-719" font-family="Arial" font-size="10.00" fill="#0d367e">9.01%</text>
<text text-anchor="middle" x="274.5" y="-708" font-family="Arial" font-size="10.00" fill="#0d367e">182500×</text>
</g>
<!-- 97 -->
<g id="node22" class="node">
<title>97</title>
<g id="a_node22"><a xlink:title="&lt;string&gt;">
<polygon fill="#ff0000" stroke="#ff0000" points="739,-972 632,-972 632,-920 739,-920 739,-972"/>
<text text-anchor="middle" x="685.5" y="-960" font-family="Arial" font-size="10.00" fill="#ffffff">&lt;string&gt;:1:&lt;module&gt;</text>
<text text-anchor="middle" x="685.5" y="-949" font-family="Arial" font-size="10.00" fill="#ffffff">100.00%</text>
<text text-anchor="middle" x="685.5" y="-938" font-family="Arial" font-size="10.00" fill="#ffffff">(0.00%)</text>
<text text-anchor="middle" x="685.5" y="-927" font-family="Arial" font-size="10.00" fill="#ffffff">1×</text>
</a>
</g>
</g>
<!-- 97&#45;&gt;77 -->
<g id="edge24" class="edge">
<title>97&#45;&gt;77</title>
<path fill="none" stroke="#ff0000" stroke-width="4" d="M685.5,-919.93C685.5,-910.74 685.5,-900.17 685.5,-890.25"/>
<polygon fill="#ff0000" stroke="#ff0000" stroke-width="4" points="689,-890.25 685.5,-880.25 682,-890.25 689,-890.25"/>
<text text-anchor="middle" x="705" y="-903" font-family="Arial" font-size="10.00" fill="#ff0000">100.00%</text>
<text text-anchor="middle" x="705" y="-892" font-family="Arial" font-size="10.00" fill="#ff0000">1×</text>
</g>
<!-- 100 -->
<g id="node23" class="node">
<title>100</title>
<g id="a_node23"><a xlink:title="~">
<polygon fill="#ff0000" stroke="#ff0000" points="769,-1064 602,-1064 602,-1012 769,-1012 769,-1064"/>
<text text-anchor="middle" x="685.5" y="-1052" font-family="Arial" font-size="10.00" fill="#ffffff">~:0:&lt;built&#45;in method builtins.exec&gt;</text>
<text text-anchor="middle" x="685.5" y="-1041" font-family="Arial" font-size="10.00" fill="#ffffff">100.00%</text>
<text text-anchor="middle" x="685.5" y="-1030" font-family="Arial" font-size="10.00" fill="#ffffff">(0.00%)</text>
<text text-anchor="middle" x="685.5" y="-1019" font-family="Arial" font-size="10.00" fill="#ffffff">1×</text>
</a>
</g>
</g>
<!-- 100&#45;&gt;97 -->
<g id="edge25" class="edge">
<title>100&#45;&gt;97</title>
<path fill="none" stroke="#ff0000" stroke-width="4" d="M685.5,-1011.93C685.5,-1002.74 685.5,-992.17 685.5,-982.25"/>
<polygon fill="#ff0000" stroke="#ff0000" stroke-width="4" points="689,-982.25 685.5,-972.25 682,-982.25 689,-982.25"/>
<text text-anchor="middle" x="705" y="-995" font-family="Arial" font-size="10.00" fill="#ff0000">100.00%</text>
<text text-anchor="middle" x="705" y="-984" font-family="Arial" font-size="10.00" fill="#ff0000">1×</text>
</g>
<!-- 302&#45;&gt;301 -->
<g id="edge27" class="edge">
<title>302&#45;&gt;301</title>
<path fill="none" stroke="#0d307d" stroke-width="0.5" d="M232.33,-643.93C222.69,-632.52 211.25,-618.96 201.31,-607.2"/>
<polygon fill="#0d307d" stroke="#0d307d" stroke-width="0.5" points="202.01,-606.13 198.82,-604.25 200.14,-607.71 202.01,-606.13"/>
<text text-anchor="middle" x="244.5" y="-627" font-family="Arial" font-size="10.00" fill="#0d307d">7.92%</text>
<text text-anchor="middle" x="244.5" y="-616" font-family="Arial" font-size="10.00" fill="#0d307d">182500×</text>
</g>
</g>
</svg>
